<svg width="213" height="18" viewBox="0 0 213 18" fill="none" xmlns="http://www.w3.org/2000/svg">
<path d="M11.2873 3.924C11.1753 4.108 11.0593 4.244 10.9393 4.332C10.8273 4.412 10.6793 4.452 10.4953 4.452C10.3193 4.452 10.1273 4.392 9.91925 4.272C9.71925 4.144 9.48325 4.008 9.21125 3.864C8.93925 3.72 8.62725 3.588 8.27525 3.468C7.92325 3.34 7.51125 3.276 7.03925 3.276C6.20725 3.276 5.58325 3.464 5.16725 3.84C4.75125 4.208 4.54325 4.692 4.54325 5.292C4.54325 5.676 4.65525 5.996 4.87925 6.252C5.11125 6.5 5.41125 6.716 5.77925 6.9C6.15525 7.084 6.57925 7.248 7.05125 7.392C7.52325 7.536 8.00725 7.696 8.50325 7.872C8.99925 8.04 9.48325 8.24 9.95525 8.472C10.4273 8.704 10.8473 8.996 11.2153 9.348C11.5913 9.7 11.8913 10.132 12.1153 10.644C12.3473 11.148 12.4633 11.764 12.4633 12.492C12.4633 13.284 12.3233 14.028 12.0433 14.724C11.7713 15.412 11.3753 16.016 10.8553 16.536C10.3353 17.048 9.69125 17.452 8.92325 17.748C8.16325 18.044 7.29925 18.192 6.33125 18.192C5.77925 18.192 5.22725 18.136 4.67525 18.024C4.13125 17.912 3.60325 17.756 3.09125 17.556C2.58725 17.356 2.11125 17.116 1.66325 16.836C1.21525 16.556 0.82325 16.244 0.48725 15.9L1.54325 14.196C1.63125 14.068 1.74725 13.964 1.89125 13.884C2.03525 13.796 2.18725 13.752 2.34725 13.752C2.56325 13.752 2.79125 13.832 3.03125 13.992C3.27125 14.152 3.54725 14.328 3.85925 14.52C4.17125 14.712 4.53125 14.888 4.93925 15.048C5.35525 15.208 5.85125 15.288 6.42725 15.288C7.26725 15.288 7.91525 15.096 8.37125 14.712C8.83525 14.328 9.06725 13.756 9.06725 12.996C9.06725 12.556 8.95125 12.2 8.71925 11.928C8.49525 11.656 8.19925 11.428 7.83125 11.244C7.46325 11.06 7.04325 10.904 6.57125 10.776C6.09925 10.64 5.61525 10.492 5.11925 10.332C4.62325 10.172 4.13925 9.98 3.66725 9.756C3.19525 9.532 2.77525 9.236 2.40725 8.868C2.03925 8.5 1.73925 8.044 1.50725 7.5C1.28325 6.956 1.17125 6.28 1.17125 5.472C1.17125 4.824 1.29925 4.196 1.55525 3.588C1.81125 2.98 2.18725 2.44 2.68325 1.968C3.17925 1.496 3.78725 1.116 4.50725 0.827999C5.23525 0.539999 6.06725 0.395998 7.00325 0.395998C8.05125 0.395998 9.01925 0.559999 9.90725 0.887999C10.8033 1.208 11.5593 1.656 12.1753 2.232L11.2873 3.924ZM25.2671 5.628V18H23.2271C22.8031 18 22.5311 17.808 22.4111 17.424L22.1951 16.56C21.9471 16.8 21.6911 17.02 21.4271 17.22C21.1631 17.42 20.8791 17.592 20.5751 17.736C20.2791 17.88 19.9551 17.992 19.6031 18.072C19.2591 18.152 18.8831 18.192 18.4751 18.192C17.8031 18.192 17.2031 18.076 16.6751 17.844C16.1551 17.612 15.7191 17.288 15.3671 16.872C15.0151 16.456 14.7471 15.96 14.5631 15.384C14.3791 14.808 14.2871 14.176 14.2871 13.488V5.628H17.5991V13.488C17.5991 14.176 17.7551 14.712 18.0671 15.096C18.3871 15.472 18.8591 15.66 19.4831 15.66C19.9471 15.66 20.3831 15.56 20.7911 15.36C21.1991 15.152 21.5871 14.872 21.9551 14.52V5.628H25.2671ZM31.4088 5.628V18.24C31.4088 18.8 31.3368 19.324 31.1928 19.812C31.0488 20.308 30.8128 20.74 30.4848 21.108C30.1648 21.476 29.7408 21.768 29.2128 21.984C28.6928 22.2 28.0488 22.308 27.2808 22.308C26.9928 22.308 26.7248 22.288 26.4768 22.248C26.2208 22.208 25.9608 22.152 25.6968 22.08L25.8168 20.328C25.8328 20.168 25.8928 20.056 25.9968 19.992C26.0928 19.928 26.2888 19.896 26.5848 19.896C26.8808 19.896 27.1248 19.868 27.3168 19.812C27.5088 19.764 27.6608 19.676 27.7728 19.548C27.8928 19.42 27.9768 19.248 28.0248 19.032C28.0728 18.824 28.0968 18.56 28.0968 18.24V5.628H31.4088ZM31.8048 2.112C31.8048 2.392 31.7488 2.652 31.6368 2.892C31.5248 3.132 31.3728 3.344 31.1808 3.528C30.9968 3.712 30.7768 3.856 30.5208 3.96C30.2728 4.064 30.0048 4.116 29.7168 4.116C29.4448 4.116 29.1848 4.064 28.9368 3.96C28.6968 3.856 28.4848 3.712 28.3008 3.528C28.1168 3.344 27.9688 3.132 27.8568 2.892C27.7528 2.652 27.7008 2.392 27.7008 2.112C27.7008 1.832 27.7528 1.572 27.8568 1.332C27.9688 1.084 28.1168 0.867999 28.3008 0.683999C28.4848 0.499999 28.6968 0.355999 28.9368 0.251999C29.1848 0.147999 29.4448 0.0959988 29.7168 0.0959988C30.0048 0.0959988 30.2728 0.147999 30.5208 0.251999C30.7768 0.355999 30.9968 0.499999 31.1808 0.683999C31.3728 0.867999 31.5248 1.084 31.6368 1.332C31.7488 1.572 31.8048 1.832 31.8048 2.112ZM42.0832 10.356C42.0832 10.012 42.0352 9.684 41.9392 9.372C41.8512 9.06 41.7072 8.784 41.5072 8.544C41.3072 8.304 41.0552 8.116 40.7512 7.98C40.4472 7.836 40.0832 7.764 39.6592 7.764C38.8672 7.764 38.2472 7.988 37.7992 8.436C37.3512 8.884 37.0592 9.524 36.9232 10.356H42.0832ZM36.8752 12.324C36.9792 13.484 37.3072 14.332 37.8592 14.868C38.4192 15.404 39.1472 15.672 40.0432 15.672C40.4992 15.672 40.8912 15.62 41.2192 15.516C41.5552 15.404 41.8472 15.284 42.0952 15.156C42.3512 15.02 42.5792 14.9 42.7792 14.796C42.9872 14.684 43.1912 14.628 43.3912 14.628C43.6472 14.628 43.8472 14.724 43.9912 14.916L44.9512 16.116C44.5992 16.524 44.2112 16.864 43.7872 17.136C43.3632 17.4 42.9232 17.612 42.4672 17.772C42.0112 17.924 41.5512 18.028 41.0872 18.084C40.6232 18.148 40.1752 18.18 39.7432 18.18C38.8792 18.18 38.0712 18.04 37.3192 17.76C36.5752 17.472 35.9232 17.052 35.3632 16.5C34.8112 15.94 34.3752 15.248 34.0552 14.424C33.7352 13.6 33.5752 12.644 33.5752 11.556C33.5752 10.716 33.7112 9.924 33.9832 9.18C34.2632 8.436 34.6632 7.788 35.1832 7.236C35.7032 6.684 36.3352 6.248 37.0792 5.928C37.8232 5.6 38.6632 5.436 39.5992 5.436C40.3912 5.436 41.1192 5.564 41.7832 5.82C42.4552 6.068 43.0312 6.432 43.5112 6.912C43.9992 7.392 44.3752 7.984 44.6392 8.688C44.9112 9.384 45.0472 10.18 45.0472 11.076C45.0472 11.324 45.0352 11.528 45.0112 11.688C44.9872 11.848 44.9472 11.976 44.8912 12.072C44.8352 12.168 44.7592 12.236 44.6632 12.276C44.5672 12.308 44.4432 12.324 44.2912 12.324H36.8752ZM51.2338 18.192C50.6738 18.192 50.1778 18.112 49.7458 17.952C49.3138 17.784 48.9498 17.548 48.6538 17.244C48.3578 16.94 48.1338 16.572 47.9818 16.14C47.8298 15.708 47.7538 15.22 47.7538 14.676V8.004H46.5898C46.4138 8.004 46.2618 7.948 46.1338 7.836C46.0138 7.724 45.9538 7.556 45.9538 7.332V6.036L47.9338 5.676L48.6058 2.472C48.6938 2.112 48.9378 1.932 49.3378 1.932H51.0658V5.7H54.2578V8.004H51.0658V14.46C51.0658 14.804 51.1458 15.076 51.3058 15.276C51.4738 15.476 51.7098 15.576 52.0138 15.576C52.1738 15.576 52.3098 15.56 52.4218 15.528C52.5338 15.488 52.6298 15.448 52.7098 15.408C52.7898 15.36 52.8618 15.32 52.9258 15.288C52.9978 15.248 53.0698 15.228 53.1418 15.228C53.2378 15.228 53.3178 15.252 53.3818 15.3C53.4458 15.34 53.5098 15.412 53.5738 15.516L54.5698 17.1C54.1138 17.46 53.5978 17.732 53.0218 17.916C52.4458 18.1 51.8498 18.192 51.2338 18.192ZM63.7241 8.172C63.6361 8.308 63.5441 8.408 63.4481 8.472C63.3601 8.528 63.2361 8.556 63.0761 8.556C62.9161 8.556 62.7521 8.516 62.5841 8.436C62.4161 8.356 62.2281 8.272 62.0201 8.184C61.8121 8.088 61.5721 8 61.3001 7.92C61.0361 7.84 60.7281 7.8 60.3761 7.8C59.8401 7.8 59.4241 7.912 59.1281 8.136C58.8321 8.352 58.6841 8.64 58.6841 9C58.6841 9.248 58.7681 9.456 58.9361 9.624C59.1041 9.792 59.3241 9.94 59.5961 10.068C59.8761 10.188 60.1921 10.304 60.5441 10.416C60.8961 10.52 61.2561 10.636 61.6241 10.764C62.0001 10.892 62.3641 11.04 62.7161 11.208C63.0681 11.376 63.3801 11.588 63.6521 11.844C63.9321 12.092 64.1561 12.396 64.3241 12.756C64.4921 13.108 64.5761 13.536 64.5761 14.04C64.5761 14.64 64.4641 15.196 64.2401 15.708C64.0241 16.212 63.7041 16.648 63.2801 17.016C62.8561 17.384 62.3281 17.672 61.6961 17.88C61.0641 18.088 60.3361 18.192 59.5121 18.192C59.0881 18.192 58.6681 18.152 58.2521 18.072C57.8361 18 57.4401 17.896 57.0641 17.76C56.6881 17.616 56.3361 17.452 56.0081 17.268C55.6801 17.084 55.3961 16.884 55.1561 16.668L55.9241 15.432C56.0121 15.288 56.1201 15.176 56.2481 15.096C56.3841 15.016 56.5561 14.976 56.7641 14.976C56.9641 14.976 57.1481 15.028 57.3161 15.132C57.4841 15.228 57.6721 15.336 57.8801 15.456C58.0881 15.568 58.3321 15.676 58.6121 15.78C58.9001 15.876 59.2561 15.924 59.6801 15.924C60.0001 15.924 60.2761 15.888 60.5081 15.816C60.7401 15.744 60.9281 15.648 61.0721 15.528C61.2161 15.4 61.3201 15.26 61.3841 15.108C61.4561 14.948 61.4921 14.784 61.4921 14.616C61.4921 14.344 61.4041 14.124 61.2281 13.956C61.0601 13.78 60.8361 13.628 60.5561 13.5C60.2841 13.372 59.9681 13.256 59.6081 13.152C59.2481 13.048 58.8801 12.932 58.5041 12.804C58.1361 12.676 57.7721 12.524 57.4121 12.348C57.0601 12.172 56.7441 11.952 56.4641 11.688C56.1921 11.416 55.9681 11.084 55.7921 10.692C55.6241 10.3 55.5401 9.824 55.5401 9.264C55.5401 8.752 55.6401 8.268 55.8401 7.812C56.0401 7.348 56.3401 6.94 56.7401 6.588C57.1401 6.236 57.6361 5.956 58.2281 5.748C58.8281 5.54 59.5201 5.436 60.3041 5.436C61.1841 5.436 61.9841 5.58 62.7041 5.868C63.4241 6.156 64.0161 6.532 64.4801 6.996L63.7241 8.172ZM79.9886 8.844C79.6766 8.484 79.3366 8.232 78.9686 8.088C78.6086 7.944 78.2246 7.872 77.8166 7.872C77.4166 7.872 77.0526 7.948 76.7246 8.1C76.3966 8.252 76.1126 8.492 75.8726 8.82C75.6406 9.14 75.4606 9.552 75.3326 10.056C75.2046 10.56 75.1406 11.16 75.1406 11.856C75.1406 12.544 75.1926 13.128 75.2966 13.608C75.4006 14.088 75.5486 14.476 75.7406 14.772C75.9406 15.068 76.1806 15.284 76.4606 15.42C76.7406 15.548 77.0526 15.612 77.3966 15.612C77.9806 15.612 78.4686 15.496 78.8606 15.264C79.2606 15.032 79.6366 14.704 79.9886 14.28V8.844ZM83.3006 0.107999V18H81.2606C80.8366 18 80.5646 17.808 80.4446 17.424L80.1686 16.344C79.9206 16.616 79.6566 16.864 79.3766 17.088C79.1046 17.312 78.8086 17.508 78.4886 17.676C78.1686 17.836 77.8246 17.96 77.4566 18.048C77.0886 18.136 76.6886 18.18 76.2566 18.18C75.5926 18.18 74.9846 18.04 74.4326 17.76C73.8806 17.48 73.4006 17.072 72.9926 16.536C72.5926 15.992 72.2806 15.328 72.0566 14.544C71.8326 13.76 71.7206 12.864 71.7206 11.856C71.7206 10.936 71.8446 10.08 72.0926 9.288C72.3486 8.496 72.7086 7.812 73.1726 7.236C73.6366 6.66 74.1966 6.208 74.8526 5.88C75.5086 5.552 76.2366 5.388 77.0366 5.388C77.7086 5.388 78.2726 5.488 78.7286 5.688C79.1926 5.888 79.6126 6.16 79.9886 6.504V0.107999H83.3006ZM93.9035 10.356C93.9035 10.012 93.8555 9.684 93.7595 9.372C93.6715 9.06 93.5275 8.784 93.3275 8.544C93.1275 8.304 92.8755 8.116 92.5715 7.98C92.2675 7.836 91.9035 7.764 91.4795 7.764C90.6875 7.764 90.0675 7.988 89.6195 8.436C89.1715 8.884 88.8795 9.524 88.7435 10.356H93.9035ZM88.6955 12.324C88.7995 13.484 89.1275 14.332 89.6795 14.868C90.2395 15.404 90.9675 15.672 91.8635 15.672C92.3195 15.672 92.7115 15.62 93.0395 15.516C93.3755 15.404 93.6675 15.284 93.9155 15.156C94.1715 15.02 94.3995 14.9 94.5995 14.796C94.8075 14.684 95.0115 14.628 95.2115 14.628C95.4675 14.628 95.6675 14.724 95.8115 14.916L96.7715 16.116C96.4195 16.524 96.0315 16.864 95.6075 17.136C95.1835 17.4 94.7435 17.612 94.2875 17.772C93.8315 17.924 93.3715 18.028 92.9075 18.084C92.4435 18.148 91.9955 18.18 91.5635 18.18C90.6995 18.18 89.8915 18.04 89.1395 17.76C88.3955 17.472 87.7435 17.052 87.1835 16.5C86.6315 15.94 86.1955 15.248 85.8755 14.424C85.5555 13.6 85.3955 12.644 85.3955 11.556C85.3955 10.716 85.5315 9.924 85.8035 9.18C86.0835 8.436 86.4835 7.788 87.0035 7.236C87.5235 6.684 88.1555 6.248 88.8995 5.928C89.6435 5.6 90.4835 5.436 91.4195 5.436C92.2115 5.436 92.9395 5.564 93.6035 5.82C94.2755 6.068 94.8515 6.432 95.3315 6.912C95.8195 7.392 96.1955 7.984 96.4595 8.688C96.7315 9.384 96.8675 10.18 96.8675 11.076C96.8675 11.324 96.8555 11.528 96.8315 11.688C96.8075 11.848 96.7675 11.976 96.7115 12.072C96.6555 12.168 96.5795 12.236 96.4835 12.276C96.3875 12.308 96.2635 12.324 96.1115 12.324H88.6955ZM112.262 8.844C111.95 8.484 111.61 8.232 111.242 8.088C110.882 7.944 110.498 7.872 110.09 7.872C109.69 7.872 109.326 7.948 108.998 8.1C108.67 8.252 108.386 8.492 108.146 8.82C107.914 9.14 107.734 9.552 107.606 10.056C107.478 10.56 107.414 11.16 107.414 11.856C107.414 12.544 107.466 13.128 107.57 13.608C107.674 14.088 107.822 14.476 108.014 14.772C108.214 15.068 108.454 15.284 108.734 15.42C109.014 15.548 109.326 15.612 109.67 15.612C110.254 15.612 110.742 15.496 111.134 15.264C111.534 15.032 111.91 14.704 112.262 14.28V8.844ZM115.574 0.107999V18H113.534C113.11 18 112.838 17.808 112.718 17.424L112.442 16.344C112.194 16.616 111.93 16.864 111.65 17.088C111.378 17.312 111.082 17.508 110.762 17.676C110.442 17.836 110.098 17.96 109.73 18.048C109.362 18.136 108.962 18.18 108.53 18.18C107.866 18.18 107.258 18.04 106.706 17.76C106.154 17.48 105.674 17.072 105.266 16.536C104.866 15.992 104.554 15.328 104.33 14.544C104.106 13.76 103.994 12.864 103.994 11.856C103.994 10.936 104.118 10.08 104.366 9.288C104.622 8.496 104.982 7.812 105.446 7.236C105.91 6.66 106.47 6.208 107.126 5.88C107.782 5.552 108.51 5.388 109.31 5.388C109.982 5.388 110.546 5.488 111.002 5.688C111.466 5.888 111.886 6.16 112.262 6.504V0.107999H115.574ZM121.737 5.628V18H118.425V5.628H121.737ZM122.133 2.112C122.133 2.392 122.077 2.652 121.965 2.892C121.853 3.132 121.701 3.344 121.509 3.528C121.325 3.712 121.105 3.856 120.849 3.96C120.601 4.064 120.333 4.116 120.045 4.116C119.773 4.116 119.513 4.064 119.265 3.96C119.025 3.856 118.813 3.712 118.629 3.528C118.445 3.344 118.297 3.132 118.185 2.892C118.081 2.652 118.029 2.392 118.029 2.112C118.029 1.832 118.081 1.572 118.185 1.332C118.297 1.084 118.445 0.867999 118.629 0.683999C118.813 0.499999 119.025 0.355999 119.265 0.251999C119.513 0.147999 119.773 0.0959988 120.045 0.0959988C120.333 0.0959988 120.601 0.147999 120.849 0.251999C121.105 0.355999 121.325 0.499999 121.509 0.683999C121.701 0.867999 121.853 1.084 121.965 1.332C122.077 1.572 122.133 1.832 122.133 2.112ZM132.255 8.172C132.167 8.308 132.075 8.408 131.979 8.472C131.891 8.528 131.767 8.556 131.607 8.556C131.447 8.556 131.283 8.516 131.115 8.436C130.947 8.356 130.759 8.272 130.551 8.184C130.343 8.088 130.103 8 129.831 7.92C129.567 7.84 129.259 7.8 128.907 7.8C128.371 7.8 127.955 7.912 127.659 8.136C127.363 8.352 127.215 8.64 127.215 9C127.215 9.248 127.299 9.456 127.467 9.624C127.635 9.792 127.855 9.94 128.127 10.068C128.407 10.188 128.723 10.304 129.075 10.416C129.427 10.52 129.787 10.636 130.155 10.764C130.531 10.892 130.895 11.04 131.247 11.208C131.599 11.376 131.911 11.588 132.183 11.844C132.463 12.092 132.687 12.396 132.855 12.756C133.023 13.108 133.107 13.536 133.107 14.04C133.107 14.64 132.995 15.196 132.771 15.708C132.555 16.212 132.235 16.648 131.811 17.016C131.387 17.384 130.859 17.672 130.227 17.88C129.595 18.088 128.867 18.192 128.043 18.192C127.619 18.192 127.199 18.152 126.783 18.072C126.367 18 125.971 17.896 125.595 17.76C125.219 17.616 124.867 17.452 124.539 17.268C124.211 17.084 123.927 16.884 123.687 16.668L124.455 15.432C124.543 15.288 124.651 15.176 124.779 15.096C124.915 15.016 125.087 14.976 125.295 14.976C125.495 14.976 125.679 15.028 125.847 15.132C126.015 15.228 126.203 15.336 126.411 15.456C126.619 15.568 126.863 15.676 127.143 15.78C127.431 15.876 127.787 15.924 128.211 15.924C128.531 15.924 128.807 15.888 129.039 15.816C129.271 15.744 129.459 15.648 129.603 15.528C129.747 15.4 129.851 15.26 129.915 15.108C129.987 14.948 130.023 14.784 130.023 14.616C130.023 14.344 129.935 14.124 129.759 13.956C129.591 13.78 129.367 13.628 129.087 13.5C128.815 13.372 128.499 13.256 128.139 13.152C127.779 13.048 127.411 12.932 127.035 12.804C126.667 12.676 126.303 12.524 125.943 12.348C125.591 12.172 125.275 11.952 124.995 11.688C124.723 11.416 124.499 11.084 124.323 10.692C124.155 10.3 124.071 9.824 124.071 9.264C124.071 8.752 124.171 8.268 124.371 7.812C124.571 7.348 124.871 6.94 125.271 6.588C125.671 6.236 126.167 5.956 126.759 5.748C127.359 5.54 128.051 5.436 128.835 5.436C129.715 5.436 130.515 5.58 131.235 5.868C131.955 6.156 132.547 6.532 133.011 6.996L132.255 8.172ZM144.157 8.388C144.061 8.516 143.965 8.616 143.869 8.688C143.773 8.752 143.637 8.784 143.461 8.784C143.301 8.784 143.145 8.74 142.993 8.652C142.849 8.556 142.681 8.456 142.489 8.352C142.297 8.24 142.069 8.14 141.805 8.052C141.541 7.956 141.213 7.908 140.821 7.908C140.325 7.908 139.893 8 139.525 8.184C139.165 8.36 138.865 8.616 138.625 8.952C138.385 9.288 138.205 9.696 138.085 10.176C137.973 10.656 137.917 11.196 137.917 11.796C137.917 13.06 138.169 14.028 138.673 14.7C139.185 15.372 139.881 15.708 140.761 15.708C141.065 15.708 141.325 15.684 141.541 15.636C141.765 15.58 141.957 15.512 142.117 15.432C142.285 15.352 142.429 15.264 142.549 15.168C142.669 15.072 142.781 14.984 142.885 14.904C142.997 14.824 143.105 14.76 143.209 14.712C143.321 14.656 143.445 14.628 143.581 14.628C143.837 14.628 144.037 14.724 144.181 14.916L145.129 16.116C144.777 16.524 144.401 16.864 144.001 17.136C143.601 17.4 143.185 17.612 142.753 17.772C142.329 17.924 141.897 18.028 141.457 18.084C141.017 18.148 140.581 18.18 140.148 18.18C139.389 18.18 138.669 18.04 137.989 17.76C137.309 17.472 136.713 17.056 136.201 16.512C135.689 15.968 135.281 15.3 134.977 14.508C134.681 13.716 134.533 12.812 134.533 11.796C134.533 10.892 134.665 10.052 134.929 9.276C135.193 8.5 135.581 7.828 136.093 7.26C136.605 6.692 137.237 6.248 137.989 5.928C138.749 5.6 139.625 5.436 140.617 5.436C141.561 5.436 142.389 5.588 143.101 5.892C143.813 6.196 144.453 6.636 145.021 7.212L144.157 8.388ZM157.666 5.628V18H155.626C155.202 18 154.93 17.808 154.81 17.424L154.594 16.56C154.346 16.8 154.09 17.02 153.826 17.22C153.562 17.42 153.278 17.592 152.974 17.736C152.678 17.88 152.354 17.992 152.002 18.072C151.658 18.152 151.282 18.192 150.874 18.192C150.202 18.192 149.602 18.076 149.074 17.844C148.554 17.612 148.118 17.288 147.766 16.872C147.414 16.456 147.146 15.96 146.962 15.384C146.778 14.808 146.686 14.176 146.686 13.488V5.628H149.998V13.488C149.998 14.176 150.154 14.712 150.466 15.096C150.786 15.472 151.258 15.66 151.882 15.66C152.346 15.66 152.782 15.56 153.19 15.36C153.598 15.152 153.986 14.872 154.354 14.52V5.628H157.666ZM168.091 8.172C168.003 8.308 167.911 8.408 167.815 8.472C167.727 8.528 167.603 8.556 167.443 8.556C167.283 8.556 167.119 8.516 166.951 8.436C166.783 8.356 166.595 8.272 166.387 8.184C166.179 8.088 165.939 8 165.667 7.92C165.403 7.84 165.095 7.8 164.743 7.8C164.207 7.8 163.791 7.912 163.495 8.136C163.199 8.352 163.051 8.64 163.051 9C163.051 9.248 163.135 9.456 163.303 9.624C163.471 9.792 163.691 9.94 163.963 10.068C164.243 10.188 164.559 10.304 164.911 10.416C165.263 10.52 165.623 10.636 165.991 10.764C166.367 10.892 166.731 11.04 167.083 11.208C167.435 11.376 167.747 11.588 168.019 11.844C168.299 12.092 168.523 12.396 168.691 12.756C168.859 13.108 168.943 13.536 168.943 14.04C168.943 14.64 168.831 15.196 168.607 15.708C168.391 16.212 168.071 16.648 167.647 17.016C167.223 17.384 166.695 17.672 166.063 17.88C165.431 18.088 164.703 18.192 163.879 18.192C163.455 18.192 163.035 18.152 162.619 18.072C162.203 18 161.807 17.896 161.431 17.76C161.055 17.616 160.703 17.452 160.375 17.268C160.047 17.084 159.763 16.884 159.523 16.668L160.291 15.432C160.379 15.288 160.487 15.176 160.615 15.096C160.751 15.016 160.923 14.976 161.131 14.976C161.331 14.976 161.515 15.028 161.683 15.132C161.851 15.228 162.039 15.336 162.247 15.456C162.455 15.568 162.699 15.676 162.979 15.78C163.267 15.876 163.623 15.924 164.047 15.924C164.367 15.924 164.643 15.888 164.875 15.816C165.107 15.744 165.295 15.648 165.439 15.528C165.583 15.4 165.687 15.26 165.751 15.108C165.823 14.948 165.859 14.784 165.859 14.616C165.859 14.344 165.771 14.124 165.595 13.956C165.427 13.78 165.203 13.628 164.923 13.5C164.651 13.372 164.335 13.256 163.975 13.152C163.615 13.048 163.247 12.932 162.871 12.804C162.503 12.676 162.139 12.524 161.779 12.348C161.427 12.172 161.111 11.952 160.831 11.688C160.559 11.416 160.335 11.084 160.159 10.692C159.991 10.3 159.907 9.824 159.907 9.264C159.907 8.752 160.007 8.268 160.207 7.812C160.407 7.348 160.707 6.94 161.107 6.588C161.507 6.236 162.003 5.956 162.595 5.748C163.195 5.54 163.887 5.436 164.671 5.436C165.551 5.436 166.351 5.58 167.071 5.868C167.791 6.156 168.383 6.532 168.847 6.996L168.091 8.172ZM178.708 8.172C178.62 8.308 178.528 8.408 178.432 8.472C178.344 8.528 178.22 8.556 178.06 8.556C177.9 8.556 177.736 8.516 177.568 8.436C177.4 8.356 177.212 8.272 177.004 8.184C176.796 8.088 176.556 8 176.284 7.92C176.02 7.84 175.712 7.8 175.36 7.8C174.824 7.8 174.408 7.912 174.112 8.136C173.816 8.352 173.668 8.64 173.668 9C173.668 9.248 173.752 9.456 173.92 9.624C174.088 9.792 174.308 9.94 174.58 10.068C174.86 10.188 175.176 10.304 175.528 10.416C175.88 10.52 176.24 10.636 176.608 10.764C176.984 10.892 177.348 11.04 177.7 11.208C178.052 11.376 178.364 11.588 178.636 11.844C178.916 12.092 179.14 12.396 179.308 12.756C179.476 13.108 179.56 13.536 179.56 14.04C179.56 14.64 179.448 15.196 179.224 15.708C179.008 16.212 178.688 16.648 178.264 17.016C177.84 17.384 177.312 17.672 176.68 17.88C176.048 18.088 175.32 18.192 174.496 18.192C174.072 18.192 173.652 18.152 173.236 18.072C172.82 18 172.424 17.896 172.048 17.76C171.672 17.616 171.32 17.452 170.992 17.268C170.664 17.084 170.38 16.884 170.14 16.668L170.908 15.432C170.996 15.288 171.104 15.176 171.232 15.096C171.368 15.016 171.54 14.976 171.748 14.976C171.948 14.976 172.132 15.028 172.3 15.132C172.468 15.228 172.656 15.336 172.864 15.456C173.072 15.568 173.316 15.676 173.596 15.78C173.884 15.876 174.24 15.924 174.664 15.924C174.984 15.924 175.26 15.888 175.492 15.816C175.724 15.744 175.912 15.648 176.056 15.528C176.2 15.4 176.304 15.26 176.368 15.108C176.44 14.948 176.476 14.784 176.476 14.616C176.476 14.344 176.388 14.124 176.212 13.956C176.044 13.78 175.82 13.628 175.54 13.5C175.268 13.372 174.952 13.256 174.592 13.152C174.232 13.048 173.864 12.932 173.488 12.804C173.12 12.676 172.756 12.524 172.396 12.348C172.044 12.172 171.728 11.952 171.448 11.688C171.176 11.416 170.952 11.084 170.776 10.692C170.608 10.3 170.524 9.824 170.524 9.264C170.524 8.752 170.624 8.268 170.824 7.812C171.024 7.348 171.324 6.94 171.724 6.588C172.124 6.236 172.62 5.956 173.212 5.748C173.812 5.54 174.504 5.436 175.288 5.436C176.168 5.436 176.968 5.58 177.688 5.868C178.408 6.156 179 6.532 179.464 6.996L178.708 8.172ZM185.042 5.628V18H181.73V5.628H185.042ZM185.438 2.112C185.438 2.392 185.382 2.652 185.27 2.892C185.158 3.132 185.006 3.344 184.814 3.528C184.63 3.712 184.41 3.856 184.154 3.96C183.906 4.064 183.638 4.116 183.35 4.116C183.078 4.116 182.818 4.064 182.57 3.96C182.33 3.856 182.118 3.712 181.934 3.528C181.75 3.344 181.602 3.132 181.49 2.892C181.386 2.652 181.334 2.392 181.334 2.112C181.334 1.832 181.386 1.572 181.49 1.332C181.602 1.084 181.75 0.867999 181.934 0.683999C182.118 0.499999 182.33 0.355999 182.57 0.251999C182.818 0.147999 183.078 0.0959988 183.35 0.0959988C183.638 0.0959988 183.906 0.147999 184.154 0.251999C184.41 0.355999 184.63 0.499999 184.814 0.683999C185.006 0.867999 185.158 1.084 185.27 1.332C185.382 1.572 185.438 1.832 185.438 2.112ZM193.448 5.436C194.376 5.436 195.22 5.584 195.98 5.88C196.74 6.176 197.392 6.6 197.936 7.152C198.48 7.696 198.9 8.36 199.196 9.144C199.492 9.928 199.64 10.812 199.64 11.796C199.64 12.78 199.492 13.668 199.196 14.46C198.9 15.244 198.48 15.912 197.936 16.464C197.392 17.016 196.74 17.44 195.98 17.736C195.22 18.032 194.376 18.18 193.448 18.18C192.512 18.18 191.66 18.032 190.892 17.736C190.132 17.44 189.48 17.016 188.936 16.464C188.392 15.912 187.968 15.244 187.664 14.46C187.368 13.668 187.22 12.78 187.22 11.796C187.22 10.812 187.368 9.928 187.664 9.144C187.968 8.36 188.392 7.696 188.936 7.152C189.48 6.6 190.132 6.176 190.892 5.88C191.66 5.584 192.512 5.436 193.448 5.436ZM193.448 15.696C194.392 15.696 195.092 15.372 195.548 14.724C196.004 14.068 196.232 13.096 196.232 11.808C196.232 10.528 196.004 9.564 195.548 8.916C195.092 8.26 194.392 7.932 193.448 7.932C192.48 7.932 191.768 8.26 191.312 8.916C190.856 9.564 190.628 10.528 190.628 11.808C190.628 13.096 190.856 14.068 191.312 14.724C191.768 15.372 192.48 15.696 193.448 15.696ZM204.792 7.068C205.04 6.828 205.296 6.608 205.56 6.408C205.832 6.208 206.116 6.036 206.412 5.892C206.716 5.748 207.04 5.636 207.384 5.556C207.736 5.476 208.116 5.436 208.524 5.436C209.196 5.436 209.792 5.552 210.312 5.784C210.832 6.016 211.268 6.34 211.62 6.756C211.98 7.172 212.248 7.668 212.424 8.244C212.608 8.82 212.7 9.452 212.7 10.14V18H209.4V10.14C209.4 9.452 209.24 8.92 208.92 8.544C208.6 8.16 208.128 7.968 207.504 7.968C207.04 7.968 206.604 8.068 206.196 8.268C205.788 8.468 205.4 8.748 205.032 9.108V18H201.72V5.628H203.76C204.176 5.628 204.452 5.82 204.588 6.204L204.792 7.068Z" fill="#03B6F0"/>
</svg>
