<svg width="627" height="488" viewBox="0 0 627 488" fill="none" xmlns="http://www.w3.org/2000/svg">
<g clip-path="url(#clip0)">
<path opacity="0.24" d="M271.851 0.137582C257.325 -0.385245 242.524 0.412757 228.722 4.89807C213.142 9.93372 199.395 19.4272 187.179 30.2598C154.452 59.2079 131.036 98.2916 95.2025 123.268C72.2084 139.301 44.357 149.354 26.3759 170.845C7.41425 193.547 2.93273 224.752 0.714884 254.241C-0.201581 265.954 -0.815613 277.961 2.48366 289.234C6.23201 302.075 14.7643 312.862 23.7182 322.75C44.2061 345.383 67.8062 364.985 93.8095 380.967C105.861 388.369 118.453 395.019 129.487 403.852C156.624 425.563 173.478 459.703 204.308 475.681C222.637 485.147 243.78 487.055 264.364 487.734C297.192 488.807 330.899 487.028 361.243 474.434C414.967 452.145 453.073 398.303 509.619 384.7C524.622 381.095 540.412 380.527 554.801 374.95C568.19 369.758 579.655 360.467 589.379 349.891C612.089 325.199 626.23 292.407 626.954 258.855C627.678 225.302 614.637 191.355 590.47 168.094C563.443 142.09 524.768 130.331 499.281 102.814C484.902 87.2847 475.032 67.0412 457.124 55.7316C432.104 39.8908 401.568 44.8256 376.163 29.1316C345.306 10.0897 307.969 1.44924 271.851 0.137582Z" fill="#479EB4"/>
<path d="M219.759 97.3193H165.889V229.448H219.759V97.3193Z" fill="#479EB4"/>
<path d="M258.837 189.154V135.238H126.82V189.154H258.837Z" fill="#479EB4"/>
<path d="M157.018 285.152H150.502V405.43H157.018V285.152Z" fill="#479EB4"/>
<path d="M434.671 285.152H428.154V405.43H434.671V285.152Z" fill="#479EB4"/>
<path d="M348.825 257.295H139.834C133.624 257.295 128.589 262.334 128.589 268.55V268.559C128.589 274.775 133.624 279.814 139.834 279.814H348.825C355.036 279.814 360.07 274.775 360.07 268.559V268.55C360.07 262.334 355.036 257.295 348.825 257.295Z" fill="#479EB4"/>
<path d="M348.825 257.295H139.834C133.624 257.295 128.589 262.334 128.589 268.55V268.559C128.589 274.775 133.624 279.814 139.834 279.814H348.825C355.036 279.814 360.07 274.775 360.07 268.559V268.55C360.07 262.334 355.036 257.295 348.825 257.295Z" fill="url(#paint0_linear)"/>
<path d="M452.422 279.814H125.629C123.341 279.814 121.487 281.67 121.487 283.96C121.487 286.249 123.341 288.106 125.629 288.106H452.422C454.71 288.106 456.565 286.249 456.565 283.96C456.565 281.67 454.71 279.814 452.422 279.814Z" fill="#479EB4"/>
<path d="M452.422 279.814H125.629C123.341 279.814 121.487 281.67 121.487 283.96C121.487 286.249 123.341 288.106 125.629 288.106H452.422C454.71 288.106 456.565 286.249 456.565 283.96C456.565 281.67 454.71 279.814 452.422 279.814Z" fill="url(#paint1_linear)"/>
<path d="M283.903 113.27C283.825 113.981 283.901 114.7 284.126 115.379C284.35 116.058 284.718 116.681 285.204 117.205C285.429 117.469 285.716 117.674 286.038 117.801C287.724 118.352 287.825 114.912 287.33 113.931C286.835 112.949 284.15 111.06 283.903 113.27Z" fill="url(#paint2_linear)"/>
<path d="M314.128 111.344C314.203 112.055 314.126 112.773 313.901 113.452C313.677 114.13 313.31 114.753 312.826 115.279C312.6 115.545 312.31 115.75 311.983 115.875C310.306 116.425 310.205 112.986 310.691 112.004C311.177 111.023 313.88 109.133 314.128 111.344Z" fill="url(#paint3_linear)"/>
<path opacity="0.24" d="M341.2 419.62C342.767 418.391 343.629 416.501 344.866 414.923C349.806 408.42 359.172 408.044 367.081 406.035C374.036 404.256 380.465 400.837 385.832 396.065C371.169 394.304 356.294 395.148 341.53 395.973L241.645 401.623C236.04 401.815 230.459 402.429 224.947 403.458C223.453 403.77 221.831 404.247 221.006 405.531C220.089 406.989 220.566 409.025 221.711 410.337C222.945 411.574 224.443 412.515 226.092 413.089C241.901 419.821 259.387 424.096 276.287 420.995C277.46 420.785 278.789 420.399 279.265 419.308C279.742 418.216 279.064 416.831 279.265 415.639C279.669 413.337 282.684 412.814 285.012 412.832L307.263 412.942C308.571 412.819 309.885 413.088 311.039 413.713C313.321 415.272 313.01 419.06 315.218 420.72C316.321 421.393 317.593 421.737 318.884 421.711C324.74 422.023 336.187 423.545 341.2 419.62Z" fill="#479EB4"/>
<path d="M313.89 139.384C313.89 139.384 334.052 166.351 343.216 179.678C352.381 193.006 362.187 144.429 362.187 144.429L376.649 153.418C376.649 153.418 364.808 220.872 338.762 201.023C312.716 181.174 313.89 139.384 313.89 139.384Z" fill="#479EB4"/>
<path d="M313.89 139.384C313.89 139.384 334.052 166.351 343.216 179.678C352.381 193.006 362.187 144.429 362.187 144.429L376.649 153.418C376.649 153.418 364.808 220.872 338.762 201.023C312.716 181.174 313.89 139.384 313.89 139.384Z" fill="url(#paint4_linear)"/>
<path d="M291.335 133.633C283.802 137.302 278.092 143.723 272.603 150.079C271.603 151.402 270.855 152.898 270.394 154.491C264.162 171.185 265.06 182.008 263.062 195.583C261.449 206.728 257.985 218.074 260.579 229.035C260.579 229.035 261.174 273.888 263.548 280.997L337.543 279.227C337.543 279.227 331.916 206.765 331.431 197.849C329.057 154.794 320.378 145.309 313.862 139.384C307.346 133.459 291.335 133.633 291.335 133.633Z" fill="#479EB4"/>
<path d="M291.335 133.633C283.802 137.302 278.092 143.723 272.603 150.079C271.603 151.402 270.855 152.898 270.394 154.491C264.162 171.185 265.06 182.008 263.062 195.583C261.449 206.728 257.985 218.074 260.579 229.035C260.579 229.035 261.174 273.888 263.548 280.997L337.543 279.227C337.543 279.227 331.669 210.296 331.623 201.408C331.431 163.884 322.055 145.612 313.862 139.384C306.879 134.064 291.335 133.633 291.335 133.633Z" fill="url(#paint5_linear)"/>
<path d="M318.114 181.238L329.112 180.862C329.112 180.862 330.661 195.822 327.856 196.712C325.052 197.601 318.38 196.858 318.38 196.858L318.114 181.238Z" fill="white"/>
<path d="M289.328 138.503C289.328 138.503 297.906 146.649 302.644 141.163C307.383 135.678 306.787 137.76 306.787 137.76L303.533 189.896L289.328 138.503Z" fill="#606161"/>
<path d="M301.215 84.6247C299.616 82.6684 297.311 81.4225 294.8 81.1575C292.389 80.9007 289.722 81.7446 288.384 83.7808C287.555 85.3472 287.172 87.1112 287.275 88.8807C287.132 90.5261 287.39 92.1817 288.027 93.7054C288.814 95.1378 290.094 96.2359 291.629 96.7965C293.41 97.4129 295.326 97.5284 297.168 97.1306C299.01 96.7327 300.708 95.8367 302.076 94.5401C304.862 92.0177 303.313 87.2113 301.215 84.6247Z" fill="#606161"/>
<path d="M301.215 84.6247C299.616 82.6684 297.311 81.4225 294.8 81.1575C292.389 80.9007 289.722 81.7446 288.384 83.7808C287.555 85.3472 287.172 87.1112 287.275 88.8807C287.132 90.5261 287.39 92.1817 288.027 93.7054C288.814 95.1378 290.094 96.2359 291.629 96.7965C293.41 97.4129 295.326 97.5284 297.168 97.1306C299.01 96.7327 300.708 95.8367 302.076 94.5401C304.862 92.0177 303.313 87.2113 301.215 84.6247Z" fill="url(#paint6_linear)"/>
<path d="M292.682 122.892C292.682 122.892 292.582 134.156 290.016 136.522C287.449 138.889 300.28 149.951 305.705 137.614C305.705 137.614 302.544 132.275 303.634 123.296C304.725 114.316 292.682 122.892 292.682 122.892Z" fill="url(#paint7_linear)"/>
<path d="M292.288 125.561V128.029C292.288 128.029 298.795 137.412 301.453 134.257C304.111 131.101 303.286 130.404 303.286 130.404L303.588 123.296L292.288 125.561Z" fill="url(#paint8_linear)"/>
<path d="M286.46 106.804C286.46 106.804 284.627 123.983 293.791 127.386C302.956 130.789 308.455 125.91 310.957 117.609C313.459 109.308 309.628 92.5772 299.858 94.2099C290.089 95.8425 286.46 106.804 286.46 106.804Z" fill="url(#paint9_linear)"/>
<path d="M284.993 112.573C284.568 111.982 284.294 111.295 284.196 110.573C283.601 107.348 283.862 104.022 284.952 100.929C286.042 97.8354 287.924 95.0823 290.41 92.9441C291.412 92.0505 292.58 91.3619 293.846 90.917C295.117 90.5537 296.442 90.4171 297.76 90.5134C301.905 90.6462 305.902 92.0878 309.179 94.6318C310.797 95.9133 312.134 97.516 313.104 99.3391C314.074 101.162 314.656 103.167 314.815 105.226C314.922 106.449 314.72 107.679 314.229 108.803C313.979 109.366 313.599 109.861 313.121 110.248C312.643 110.635 312.081 110.904 311.479 111.032C309.362 111.399 308.776 109.436 307.071 108.134C304.487 106.162 303.662 103.245 297.787 103.74C288.238 104.547 287.569 115.719 284.993 112.573Z" fill="#606161"/>
<path d="M282.666 139.54C282.666 139.54 250.699 161.756 249.361 203.673C248.591 227.962 276.003 223.853 276.855 223.229C277.707 222.605 280.411 201.903 280.411 201.903C280.411 201.903 270.642 201.903 269.459 200.124C268.277 198.344 282.666 139.54 282.666 139.54Z" fill="#479EB4"/>
<path d="M282.666 139.54C282.666 139.54 250.699 161.756 249.361 203.673C248.591 227.962 276.003 223.853 276.855 223.229C277.707 222.605 280.411 201.903 280.411 201.903C280.411 201.903 270.642 201.903 269.459 200.124C268.277 198.344 282.666 139.54 282.666 139.54Z" fill="url(#paint10_linear)"/>
<path d="M269.496 280.41L268.314 396.542L269.203 412.832L281.034 413.428L298.795 287.225L313.523 413.648L326.179 413.575L327.811 279.227L269.496 280.41Z" fill="#606161"/>
<path d="M269.496 280.41L268.314 396.542L269.203 412.832L281.034 413.428L299.098 285.739L313.523 413.648L326.179 413.575L327.811 279.227L269.496 280.41Z" fill="url(#paint11_linear)"/>
<path d="M365.459 141.888C365.644 139.019 366.16 136.181 366.999 133.431C367.853 130.665 369.641 128.281 372.058 126.689C373.135 125.97 374.446 125.688 375.723 125.901C377.969 126.433 379.078 129.037 379.215 131.349C379.353 133.66 378.894 136.045 379.554 138.265C379.765 138.98 380.086 139.659 380.26 140.384C380.828 142.842 379.545 145.346 377.996 147.336C377.16 148.478 376.123 149.457 374.935 150.226C373.691 150.918 372.279 151.252 370.857 151.189C369.434 151.125 368.058 150.668 366.88 149.868C363.846 147.703 365.129 145.163 365.459 141.888Z" fill="url(#paint12_linear)"/>
<path d="M259.433 422.316L280.154 422.023L281.034 413.428L269.203 412.832L259.433 422.316Z" fill="#606161"/>
<path d="M335.133 422.316L314.412 422.023L313.523 413.428L325.364 412.832L335.133 422.316Z" fill="#606161"/>
<path d="M291.619 134.055C291.619 134.055 288.265 136.917 291.619 144.025C294.974 151.134 303.854 191.236 303.854 191.236L286.093 161.884L288.073 150.822L284.288 147.914C284.288 147.914 284.288 137.449 286.267 135.275C288.247 133.101 290.355 133.238 291.619 134.055Z" fill="#479EB4"/>
<path d="M303.973 132.725C303.973 132.725 309.307 134.055 310.196 136.577C311.085 139.1 314.778 146.502 314.778 146.502L312.414 149.749L316.08 154.042L303.79 191.227C303.79 191.227 306.952 140.861 305.669 137.605C304.386 134.348 303.973 132.725 303.973 132.725Z" fill="#479EB4"/>
<path d="M291.619 134.055C291.619 134.055 288.265 136.917 291.619 144.025C294.974 151.134 303.854 191.236 303.854 191.236L286.093 161.884L288.073 150.822L284.288 147.914C284.288 147.914 284.288 137.449 286.267 135.275C288.247 133.101 290.355 133.238 291.619 134.055Z" fill="url(#paint13_linear)"/>
<path d="M303.973 132.725C303.973 132.725 309.307 134.055 310.196 136.577C311.085 139.1 314.778 146.502 314.778 146.502L312.414 149.749L316.08 154.042L303.79 191.227C303.79 191.227 306.952 140.861 305.669 137.605C304.386 134.348 303.973 132.725 303.973 132.725Z" fill="url(#paint14_linear)"/>
<path d="M301.627 159.6C300.834 159.545 300.069 159.284 299.407 158.844C298.745 158.403 298.209 157.798 297.851 157.087C297.613 156.683 297.109 155.894 296.458 154.858C293.626 150.391 287.734 141.099 286.753 137.806C285.699 134.302 288.696 132.23 290.419 131.624L290.767 132.624C290.602 132.679 286.716 134.092 287.734 137.504C288.65 140.641 294.515 149.868 297.329 154.298C297.989 155.344 298.493 156.133 298.731 156.546C299.648 158.041 300.812 158.765 302.012 158.554C303.213 158.343 305.953 156.876 307.63 147.63C310.004 134.587 306.054 132.496 304.743 131.798L305.238 130.881C306.704 131.661 311.177 134.018 308.666 147.832C306.943 157.362 303.873 159.297 302.205 159.6C302.012 159.617 301.819 159.617 301.627 159.6Z" fill="#479EB4"/>
<path d="M295.707 214.46C294.101 214.446 292.525 214.026 291.124 213.24C289.636 212.483 288.388 211.325 287.523 209.895C286.658 208.465 286.21 206.821 286.231 205.15C286.414 201.811 288.824 199.014 293.022 197.271C306.686 191.566 301.92 159.343 301.875 159.022L302.91 158.866C303.121 160.215 307.841 192.217 293.416 198.234C289.621 199.821 287.44 202.298 287.285 205.205C287.288 206.676 287.696 208.117 288.461 209.372C289.227 210.628 290.323 211.648 291.629 212.323C293.126 213.14 294.829 213.502 296.529 213.363C298.229 213.225 299.851 212.592 301.196 211.543C311.195 204.398 322.275 181.715 322.275 178.789H323.329C323.329 181.871 312.286 204.893 301.792 212.406C300.032 213.717 297.901 214.437 295.707 214.46Z" fill="#479EB4"/>
<path d="M301.627 159.6C300.834 159.545 300.069 159.284 299.407 158.844C298.745 158.403 298.209 157.798 297.851 157.087C297.613 156.683 297.109 155.894 296.458 154.858C293.626 150.391 287.734 141.099 286.753 137.806C285.699 134.302 288.696 132.23 290.419 131.624L290.767 132.624C290.602 132.679 286.716 134.092 287.734 137.504C288.65 140.641 294.515 149.868 297.329 154.298C297.989 155.344 298.493 156.133 298.731 156.546C299.648 158.041 300.812 158.765 302.012 158.554C303.213 158.343 305.953 156.876 307.63 147.63C310.004 134.587 306.054 132.496 304.743 131.798L305.238 130.881C306.704 131.661 311.177 134.018 308.666 147.832C306.943 157.362 303.873 159.297 302.205 159.6C302.012 159.617 301.819 159.617 301.627 159.6Z" fill="url(#paint15_linear)"/>
<path d="M295.707 214.46C294.101 214.446 292.525 214.026 291.124 213.24C289.636 212.483 288.388 211.325 287.523 209.895C286.658 208.465 286.21 206.821 286.231 205.15C286.414 201.811 288.824 199.014 293.022 197.271C306.686 191.566 301.92 159.343 301.875 159.022L302.91 158.866C303.121 160.215 307.841 192.217 293.416 198.234C289.621 199.821 287.44 202.298 287.285 205.205C287.288 206.676 287.696 208.117 288.461 209.372C289.227 210.628 290.323 211.648 291.629 212.323C293.126 213.14 294.829 213.502 296.529 213.363C298.229 213.225 299.851 212.592 301.196 211.543C311.195 204.398 322.275 181.715 322.275 178.789H323.329C323.329 181.871 312.286 204.893 301.792 212.406C300.032 213.717 297.901 214.437 295.707 214.46Z" fill="url(#paint16_linear)"/>
<path d="M291.399 202.784L295.982 187.906C296.354 186.692 297.151 185.653 298.227 184.98C299.302 184.306 300.584 184.042 301.838 184.237L319.865 186.989C320.624 187.108 321.347 187.392 321.986 187.819C322.624 188.247 323.162 188.808 323.562 189.464C323.962 190.12 324.215 190.855 324.303 191.619C324.391 192.383 324.312 193.156 324.071 193.887L312.469 228.962C312.053 230.22 311.179 231.277 310.022 231.92C308.864 232.564 307.506 232.749 306.219 232.438L289.237 228.375C288.53 228.206 287.866 227.893 287.286 227.456C286.706 227.019 286.222 226.467 285.864 225.834C285.507 225.202 285.283 224.502 285.207 223.78C285.132 223.057 285.205 222.326 285.424 221.633L291.399 202.784Z" fill="#479EB4"/>
<path d="M291.399 202.784L295.982 187.906C296.354 186.692 297.151 185.653 298.227 184.98C299.302 184.306 300.584 184.042 301.838 184.237L319.865 186.989C320.624 187.108 321.347 187.392 321.986 187.819C322.624 188.247 323.162 188.808 323.562 189.464C323.962 190.12 324.215 190.855 324.303 191.619C324.391 192.383 324.312 193.156 324.071 193.887L312.469 228.962C312.053 230.22 311.179 231.277 310.022 231.92C308.864 232.564 307.506 232.749 306.219 232.438L289.237 228.375C288.53 228.206 287.866 227.893 287.286 227.456C286.706 227.019 286.222 226.467 285.864 225.834C285.507 225.202 285.283 224.502 285.207 223.78C285.132 223.057 285.205 222.326 285.424 221.633L291.399 202.784Z" fill="url(#paint17_linear)"/>
<path d="M292.288 203.673L296.871 188.796C297.243 187.582 298.04 186.543 299.116 185.869C300.191 185.195 301.473 184.932 302.727 185.127L320.754 187.879C321.513 187.998 322.236 188.281 322.875 188.709C323.513 189.136 324.051 189.697 324.451 190.354C324.851 191.01 325.104 191.745 325.192 192.509C325.28 193.272 325.201 194.046 324.96 194.776L313.358 229.852C312.94 231.109 312.066 232.164 310.909 232.807C309.752 233.451 308.395 233.637 307.108 233.328L290.126 229.264C289.419 229.095 288.755 228.783 288.175 228.346C287.595 227.908 287.111 227.357 286.753 226.724C286.396 226.092 286.172 225.392 286.096 224.669C286.02 223.946 286.094 223.216 286.313 222.523L292.288 203.673Z" fill="#479EB4"/>
<path d="M296.825 201.298C298.067 201.186 299.318 201.349 300.491 201.775C301.076 201.991 301.593 202.361 301.988 202.845C302.383 203.329 302.641 203.909 302.736 204.526C302.855 206.003 301.746 207.278 300.509 208.095C299.272 208.911 297.833 209.37 296.66 210.268C295.212 211.387 294.295 213.02 293.04 214.378C291.557 215.894 289.661 216.941 287.589 217.389C285.517 217.838 283.359 217.667 281.382 216.9C279.992 216.437 278.826 215.469 278.117 214.186C277.407 212.903 277.205 211.4 277.552 209.975C277.753 208.617 278.285 205.939 279.385 204.994C280.484 204.05 283.637 203.701 285.057 203.307C288.888 202.18 292.838 201.506 296.825 201.298Z" fill="url(#paint18_linear)"/>
<path d="M312.423 112.573C312.533 112.467 312.623 112.343 312.689 112.206C312.724 112.043 312.746 111.877 312.753 111.711C312.776 111.547 312.858 111.397 312.982 111.289C313.044 111.235 313.119 111.198 313.199 111.182C313.279 111.166 313.363 111.171 313.44 111.197C313.508 111.229 313.569 111.275 313.618 111.332C313.667 111.389 313.703 111.455 313.725 111.527C313.764 111.668 313.786 111.813 313.789 111.959C313.846 112.527 313.761 113.101 313.541 113.628C313.327 113.975 313.058 114.285 312.744 114.545C312.692 114.612 312.627 114.668 312.553 114.709C312.479 114.75 312.397 114.775 312.313 114.784C312.201 114.777 312.093 114.738 312.002 114.674C311.955 114.657 311.916 114.624 311.892 114.582C311.883 114.543 311.883 114.502 311.892 114.463C311.818 114.075 311.818 113.676 311.892 113.289C311.994 113.003 312.179 112.754 312.423 112.573Z" fill="url(#paint19_linear)"/>
<path d="M285.827 114.426C285.712 114.323 285.619 114.198 285.552 114.059C285.517 113.896 285.495 113.73 285.488 113.564C285.467 113.4 285.385 113.249 285.259 113.142C285.198 113.087 285.123 113.049 285.043 113.033C284.962 113.017 284.878 113.023 284.801 113.05C284.734 113.081 284.674 113.127 284.627 113.184C284.579 113.241 284.545 113.308 284.526 113.38C284.477 113.518 284.455 113.665 284.462 113.811C284.404 114.377 284.489 114.948 284.709 115.472C284.918 115.82 285.185 116.13 285.497 116.389C285.608 116.521 285.766 116.607 285.937 116.627C286.049 116.617 286.156 116.579 286.249 116.517C286.291 116.495 286.329 116.463 286.359 116.425C286.367 116.386 286.367 116.346 286.359 116.306C286.432 115.918 286.432 115.52 286.359 115.132C286.253 114.851 286.068 114.606 285.827 114.426Z" fill="url(#paint20_linear)"/>
<path d="M321.065 179.018C321.256 180.172 321.862 181.217 322.77 181.953C323.021 182.21 323.338 182.391 323.687 182.476C324.077 182.509 324.467 182.402 324.786 182.173C325.392 181.797 325.866 181.242 326.145 180.585C326.424 179.929 326.493 179.202 326.344 178.504C325.584 175.716 320.772 175.688 321.065 179.018Z" fill="#479EB4"/>
<path d="M321.954 177.716C322.092 179.256 324.099 183.219 326.867 181.916C327.705 181.456 328.364 180.728 328.74 179.848C329.115 178.969 329.185 177.988 328.938 177.064C327.966 173.331 321.56 173.294 321.954 177.716Z" fill="#479EB4"/>
<path d="M321.954 177.716C322.504 182.843 326.427 182.192 326.867 181.916C327.669 181.42 328.299 180.687 328.669 179.818C329.04 178.95 329.134 177.988 328.938 177.064C327.966 173.331 321.478 173.304 321.954 177.716Z" fill="url(#paint21_linear)"/>
<path d="M323.008 178C323.366 181.293 325.886 180.871 326.161 180.697C326.677 180.379 327.082 179.91 327.321 179.354C327.561 178.797 327.623 178.18 327.499 177.587C326.867 175.184 322.706 175.166 323.008 178Z" fill="url(#paint22_linear)"/>
<path d="M448.098 214.745L366.992 253.76C360.655 256.808 357.987 264.42 361.033 270.762C364.078 277.104 371.684 279.774 378.02 276.726L459.127 237.711C465.463 234.663 468.131 227.051 465.086 220.709C462.04 214.367 454.435 211.697 448.098 214.745Z" fill="#479EB4"/>
<path d="M448.098 214.745L366.992 253.76C360.655 256.808 357.987 264.42 361.033 270.762C364.078 277.104 371.684 279.774 378.02 276.726L459.127 237.711C465.463 234.663 468.131 227.051 465.086 220.709C462.04 214.367 454.435 211.697 448.098 214.745Z" fill="url(#paint23_linear)"/>
</g>
<defs>
<linearGradient id="paint0_linear" x1="243.991" y1="276.943" x2="244.734" y2="258.57" gradientUnits="userSpaceOnUse">
<stop stop-color="white" stop-opacity="0"/>
<stop offset="0.95" stop-color="white"/>
</linearGradient>
<linearGradient id="paint1_linear" x1="289.026" y1="307.661" x2="289.026" y2="258.488" gradientUnits="userSpaceOnUse">
<stop offset="0.12" stop-color="#010101" stop-opacity="0"/>
<stop offset="0.95" stop-color="#010101"/>
</linearGradient>
<linearGradient id="paint2_linear" x1="283.875" y1="115.031" x2="287.587" y2="115.031" gradientUnits="userSpaceOnUse">
<stop stop-color="#E5C6D6"/>
<stop offset="0.42" stop-color="#EAD4D0"/>
<stop offset="1" stop-color="#F0E9CB"/>
</linearGradient>
<linearGradient id="paint3_linear" x1="2335.35" y1="976.093" x2="2320.26" y2="976.093" gradientUnits="userSpaceOnUse">
<stop stop-color="#E5C6D6"/>
<stop offset="0.42" stop-color="#EAD4D0"/>
<stop offset="1" stop-color="#F0E9CB"/>
</linearGradient>
<linearGradient id="paint4_linear" x1="23765.7" y1="18276.8" x2="23941" y2="14514.5" gradientUnits="userSpaceOnUse">
<stop stop-color="white" stop-opacity="0"/>
<stop offset="0.95" stop-color="white"/>
</linearGradient>
<linearGradient id="paint5_linear" x1="20536.6" y1="39043.6" x2="28248.2" y2="38641.8" gradientUnits="userSpaceOnUse">
<stop stop-color="white" stop-opacity="0"/>
<stop offset="0.95" stop-color="white"/>
</linearGradient>
<linearGradient id="paint6_linear" x1="293.351" y1="84.9549" x2="296.977" y2="94.5839" gradientUnits="userSpaceOnUse">
<stop stop-color="#010101" stop-opacity="0"/>
<stop offset="0.95" stop-color="#010101"/>
</linearGradient>
<linearGradient id="paint7_linear" x1="5367.76" y1="4317.33" x2="5648.04" y2="4317.33" gradientUnits="userSpaceOnUse">
<stop stop-color="#E5C6D6"/>
<stop offset="0.42" stop-color="#EAD4D0"/>
<stop offset="1" stop-color="#F0E9CB"/>
</linearGradient>
<linearGradient id="paint8_linear" x1="3952.26" y1="2213.83" x2="4048.31" y2="1751.74" gradientUnits="userSpaceOnUse">
<stop offset="0.12" stop-color="#010101" stop-opacity="0"/>
<stop offset="0.95" stop-color="#010101"/>
</linearGradient>
<linearGradient id="paint9_linear" x1="8238.85" y1="5322.73" x2="8941.93" y2="5322.73" gradientUnits="userSpaceOnUse">
<stop stop-color="#E5C6D6"/>
<stop offset="0.42" stop-color="#EAD4D0"/>
<stop offset="1" stop-color="#F0E9CB"/>
</linearGradient>
<linearGradient id="paint10_linear" x1="232.333" y1="176.624" x2="277.928" y2="181.944" gradientUnits="userSpaceOnUse">
<stop offset="0.52" stop-color="white" stop-opacity="0.52"/>
<stop offset="0.95" stop-color="white"/>
</linearGradient>
<linearGradient id="paint11_linear" x1="19277.6" y1="58571.2" x2="24773.8" y2="34025.9" gradientUnits="userSpaceOnUse">
<stop offset="0.12" stop-color="#010101" stop-opacity="0"/>
<stop offset="0.95" stop-color="#010101"/>
</linearGradient>
<linearGradient id="paint12_linear" x1="6544.83" y1="4735.65" x2="6806.6" y2="4735.65" gradientUnits="userSpaceOnUse">
<stop stop-color="#E5C6D6"/>
<stop offset="0.42" stop-color="#EAD4D0"/>
<stop offset="1" stop-color="#F0E9CB"/>
</linearGradient>
<linearGradient id="paint13_linear" x1="6383.77" y1="12368.9" x2="6688.85" y2="12334.4" gradientUnits="userSpaceOnUse">
<stop stop-color="white" stop-opacity="0"/>
<stop offset="0.95" stop-color="white"/>
</linearGradient>
<linearGradient id="paint14_linear" x1="319.562" y1="160.903" x2="305.155" y2="161.891" gradientUnits="userSpaceOnUse">
<stop stop-color="white" stop-opacity="0"/>
<stop offset="0.11" stop-color="white" stop-opacity="0.18"/>
<stop offset="0.29" stop-color="white" stop-opacity="0.42"/>
<stop offset="0.45" stop-color="white" stop-opacity="0.63"/>
<stop offset="0.6" stop-color="white" stop-opacity="0.79"/>
<stop offset="0.74" stop-color="white" stop-opacity="0.9"/>
<stop offset="0.86" stop-color="white" stop-opacity="0.98"/>
<stop offset="0.95" stop-color="white"/>
</linearGradient>
<linearGradient id="paint15_linear" x1="8017.88" y1="5126.44" x2="6016.75" y2="6934.99" gradientUnits="userSpaceOnUse">
<stop offset="0.12" stop-color="#010101" stop-opacity="0"/>
<stop offset="0.95" stop-color="#010101"/>
</linearGradient>
<linearGradient id="paint16_linear" x1="13761.4" y1="11067" x2="10015.2" y2="13903.8" gradientUnits="userSpaceOnUse">
<stop offset="0.12" stop-color="#010101" stop-opacity="0"/>
<stop offset="0.95" stop-color="#010101"/>
</linearGradient>
<linearGradient id="paint17_linear" x1="12336.9" y1="11526.9" x2="15170.7" y2="13583.2" gradientUnits="userSpaceOnUse">
<stop offset="0.12" stop-color="#010101" stop-opacity="0"/>
<stop offset="0.95" stop-color="#010101"/>
</linearGradient>
<linearGradient id="paint18_linear" x1="7975.77" y1="4442.94" x2="8675.42" y2="4442.94" gradientUnits="userSpaceOnUse">
<stop stop-color="#E5C6D6"/>
<stop offset="0.42" stop-color="#EAD4D0"/>
<stop offset="1" stop-color="#F0E9CB"/>
</linearGradient>
<linearGradient id="paint19_linear" x1="988.217" y1="667.999" x2="971.566" y2="666.119" gradientUnits="userSpaceOnUse">
<stop offset="0.12" stop-color="#010101" stop-opacity="0"/>
<stop offset="0.95" stop-color="#010101"/>
</linearGradient>
<linearGradient id="paint20_linear" x1="854.218" y1="675.907" x2="870.872" y2="674.021" gradientUnits="userSpaceOnUse">
<stop offset="0.12" stop-color="#010101" stop-opacity="0"/>
<stop offset="0.95" stop-color="#010101"/>
</linearGradient>
<linearGradient id="paint21_linear" x1="2880.06" y1="1868.97" x2="2784.71" y2="2013.58" gradientUnits="userSpaceOnUse">
<stop offset="0.12" stop-color="#010101" stop-opacity="0"/>
<stop offset="0.95" stop-color="#010101"/>
</linearGradient>
<linearGradient id="paint22_linear" x1="1959.68" y1="1276.58" x2="1920.42" y2="1336.22" gradientUnits="userSpaceOnUse">
<stop offset="0.12" stop-color="#010101" stop-opacity="0"/>
<stop offset="0.95" stop-color="#010101"/>
</linearGradient>
<linearGradient id="paint23_linear" x1="52906.9" y1="8026.11" x2="52829.7" y2="7347.53" gradientUnits="userSpaceOnUse">
<stop stop-color="white" stop-opacity="0"/>
<stop offset="0.95" stop-color="white"/>
</linearGradient>
<clipPath id="clip0">
<rect width="627" height="488" fill="white"/>
</clipPath>
</defs>
</svg>
