<?xml version="1.0" encoding="iso-8859-1"?>
<!-- Generator: Adobe Illustrator 17.1.0, SVG Export Plug-In . SVG Version: 6.00 Build 0)  -->
<!DOCTYPE svg PUBLIC "-//W3C//DTD SVG 1.1//EN" "http://www.w3.org/Graphics/SVG/1.1/DTD/svg11.dtd">
<svg version="1.1" id="Capa_1" xmlns="http://www.w3.org/2000/svg" xmlns:xlink="http://www.w3.org/1999/xlink" x="0px" y="0px"
	 viewBox="0 0 280 280" style="enable-background:new 0 0 280 280;" xml:space="preserve">
<path d="M251.667,108.5v26H272c4.143,0,7.5,3.357,7.5,7.5s-3.357,7.5-7.5,7.5h-20.333v26H272c4.143,0,7.5,3.357,7.5,7.5
	s-3.357,7.5-7.5,7.5h-20.333v26H272c4.143,0,7.5,3.357,7.5,7.5s-3.357,7.5-7.5,7.5h-20.333v7.5c0,8.284-5.883,15.5-14.167,15.5
	h-8.833v17c0,4.143-3.357,7.5-7.5,7.5s-7.5-3.357-7.5-7.5v-17h-26v17c0,4.143-3.357,7.5-7.5,7.5s-7.5-3.357-7.5-7.5v-17h-26v18
	c0,4.143-3.357,7.5-7.5,7.5s-7.5-3.357-7.5-7.5v-18h-26v18c0,4.143-3.357,7.5-7.5,7.5s-7.5-3.357-7.5-7.5v-18h-26v18
	c0,4.143-3.357,7.5-7.5,7.5s-7.5-3.357-7.5-7.5v-18H40.5c-8.284,0-15.833-7.216-15.833-15.5v-7.5H8c-4.143,0-7.5-3.357-7.5-7.5
	s3.357-7.5,7.5-7.5h16.667v-26H8c-4.143,0-7.5-3.357-7.5-7.5s3.357-7.5,7.5-7.5h16.667v-26H8c-4.143,0-7.5-3.357-7.5-7.5
	s3.357-7.5,7.5-7.5h16.667v-26H8c-4.143,0-7.5-3.357-7.5-7.5s3.357-7.5,7.5-7.5h16.667v-26H8c-4.143,0-7.5-3.357-7.5-7.5
	s3.357-7.5,7.5-7.5h16.667V42c0-8.284,7.549-14.5,15.833-14.5h9.167v-19c0-4.143,3.357-7.5,7.5-7.5s7.5,3.357,7.5,7.5v19h26v-19
	c0-4.143,3.357-7.5,7.5-7.5s7.5,3.357,7.5,7.5v19h26v-19c0-4.143,3.357-7.5,7.5-7.5s7.5,3.357,7.5,7.5v19h26v-20
	c0-4.143,3.357-7.5,7.5-7.5s7.5,3.357,7.5,7.5v20h26v-20c0-4.143,3.357-7.5,7.5-7.5s7.5,3.357,7.5,7.5v20h8.833
	c8.284,0,14.167,6.216,14.167,14.5v10.5H272c4.143,0,7.5,3.357,7.5,7.5s-3.357,7.5-7.5,7.5h-20.333v26H272
	c4.143,0,7.5,3.357,7.5,7.5s-3.357,7.5-7.5,7.5H251.667z"/>
<g>
</g>
<g>
</g>
<g>
</g>
<g>
</g>
<g>
</g>
<g>
</g>
<g>
</g>
<g>
</g>
<g>
</g>
<g>
</g>
<g>
</g>
<g>
</g>
<g>
</g>
<g>
</g>
<g>
</g>
</svg>
