<svg id="svg" version="1.1" xmlns="http://www.w3.org/2000/svg" xmlns:xlink="http://www.w3.org/1999/xlink" width="400" height="129.2929292929293" viewBox="0, 0, 400,129.2929292929293"><g id="svgg"><path id="path0" d="M335.833 4.000 C 335.833 4.098,335.250 4.167,334.417 4.167 C 333.637 4.167,333.000 4.231,333.000 4.309 C 333.000 4.388,332.308 4.504,331.463 4.568 C 330.617 4.632,329.886 4.745,329.838 4.820 C 329.789 4.895,329.245 5.009,328.627 5.074 C 328.009 5.139,327.461 5.262,327.409 5.346 C 327.356 5.431,327.093 5.500,326.823 5.500 C 326.554 5.500,326.333 5.566,326.333 5.647 C 326.333 5.729,325.921 5.846,325.417 5.909 C 324.912 5.972,324.500 6.094,324.500 6.179 C 324.500 6.264,324.313 6.333,324.083 6.333 C 323.854 6.333,323.667 6.401,323.667 6.484 C 323.667 6.567,323.292 6.687,322.833 6.750 C 322.375 6.813,322.000 6.923,322.000 6.994 C 322.000 7.066,321.700 7.172,321.333 7.231 C 320.967 7.289,320.667 7.411,320.667 7.502 C 320.667 7.593,320.479 7.667,320.250 7.667 C 320.021 7.667,319.833 7.741,319.833 7.831 C 319.833 7.922,319.533 8.044,319.167 8.103 C 318.800 8.161,318.500 8.269,318.500 8.341 C 318.500 8.414,318.275 8.523,318.000 8.583 C 317.725 8.644,317.500 8.762,317.500 8.847 C 317.500 8.931,317.350 9.000,317.167 9.000 C 316.983 9.000,316.833 9.069,316.833 9.153 C 316.833 9.238,316.608 9.356,316.333 9.417 C 316.058 9.477,315.833 9.596,315.833 9.680 C 315.833 9.764,315.721 9.833,315.583 9.833 C 315.446 9.833,315.333 9.900,315.333 9.981 C 315.333 10.063,315.078 10.177,314.766 10.236 C 314.454 10.295,314.156 10.453,314.105 10.588 C 314.053 10.723,313.858 10.833,313.672 10.833 C 313.486 10.833,313.333 10.908,313.333 11.000 C 313.333 11.092,313.229 11.167,313.101 11.167 C 312.973 11.167,312.826 11.279,312.773 11.417 C 312.720 11.554,312.525 11.667,312.339 11.667 C 312.152 11.667,312.000 11.733,312.000 11.814 C 312.000 11.895,311.869 12.005,311.708 12.059 C 311.293 12.198,310.773 12.548,310.617 12.792 C 310.543 12.906,310.342 13.000,310.170 13.000 C 309.997 13.000,309.809 13.146,309.753 13.325 C 309.696 13.503,309.485 13.701,309.283 13.765 C 309.082 13.828,308.751 14.057,308.550 14.273 C 308.348 14.490,308.100 14.667,308.000 14.667 C 307.900 14.667,307.644 14.854,307.431 15.083 C 307.219 15.313,306.974 15.500,306.887 15.500 C 306.801 15.500,306.385 15.875,305.965 16.333 C 305.544 16.792,305.116 17.167,305.014 17.167 C 304.744 17.167,301.333 20.637,301.333 20.912 C 301.333 21.040,301.183 21.192,301.000 21.250 C 300.817 21.308,300.667 21.420,300.667 21.498 C 300.667 21.577,300.442 21.866,300.167 22.141 C 299.892 22.416,299.667 22.690,299.667 22.750 C 299.667 22.810,299.442 23.084,299.167 23.359 C 298.892 23.634,298.667 23.948,298.667 24.057 C 298.667 24.165,298.479 24.395,298.250 24.567 C 298.021 24.739,297.833 25.014,297.833 25.179 C 297.833 25.343,297.683 25.525,297.500 25.583 C 297.317 25.642,297.167 25.791,297.167 25.916 C 297.167 26.041,297.064 26.245,296.939 26.371 C 296.813 26.496,296.658 26.764,296.594 26.966 C 296.530 27.168,296.408 27.333,296.322 27.333 C 296.237 27.333,296.167 27.446,296.167 27.583 C 296.167 27.721,296.092 27.833,296.000 27.833 C 295.908 27.833,295.833 27.940,295.833 28.071 C 295.833 28.202,295.731 28.412,295.605 28.538 C 295.480 28.663,295.319 28.950,295.248 29.174 C 295.177 29.399,294.985 29.700,294.821 29.843 C 294.657 29.986,294.472 30.305,294.410 30.552 C 294.348 30.798,294.230 31.000,294.149 31.000 C 294.067 31.000,294.000 31.150,294.000 31.333 C 294.000 31.517,293.931 31.667,293.847 31.667 C 293.762 31.667,293.644 31.892,293.583 32.167 C 293.523 32.442,293.408 32.667,293.328 32.667 C 293.247 32.667,293.130 32.948,293.067 33.292 C 293.004 33.635,292.903 33.954,292.842 34.000 C 292.635 34.158,292.167 35.301,292.167 35.650 C 292.167 35.843,292.110 36.000,292.041 36.000 C 291.877 36.000,291.537 36.774,291.400 37.460 C 291.340 37.757,291.233 38.000,291.161 38.000 C 291.090 38.000,290.980 38.375,290.917 38.833 C 290.854 39.292,290.734 39.667,290.651 39.667 C 290.568 39.667,290.500 39.854,290.500 40.083 C 290.500 40.313,290.431 40.500,290.347 40.500 C 290.262 40.500,290.141 40.987,290.077 41.583 C 290.013 42.179,289.903 42.667,289.831 42.667 C 289.760 42.667,289.648 43.267,289.583 44.000 C 289.518 44.733,289.398 45.333,289.316 45.333 C 289.234 45.333,289.167 45.740,289.167 46.236 C 289.167 46.810,289.091 47.164,288.958 47.208 C 288.796 47.262,288.750 48.787,288.750 54.083 C 288.750 59.380,288.796 60.904,288.958 60.958 C 289.083 61.000,289.167 61.323,289.167 61.764 C 289.167 62.169,289.232 62.500,289.312 62.500 C 289.392 62.500,289.510 63.175,289.574 64.000 C 289.639 64.825,289.752 65.500,289.826 65.500 C 289.901 65.500,290.013 65.988,290.077 66.583 C 290.141 67.179,290.262 67.667,290.347 67.667 C 290.431 67.667,290.500 67.854,290.500 68.083 C 290.500 68.313,290.570 68.500,290.655 68.500 C 290.740 68.500,290.861 68.912,290.924 69.417 C 290.987 69.921,291.101 70.333,291.178 70.333 C 291.255 70.333,291.368 70.597,291.428 70.919 C 291.488 71.240,291.604 71.545,291.686 71.595 C 291.767 71.645,291.833 71.869,291.833 72.093 C 291.833 72.317,291.907 72.500,291.998 72.500 C 292.089 72.500,292.211 72.800,292.269 73.167 C 292.328 73.533,292.441 73.833,292.521 73.833 C 292.601 73.833,292.667 73.946,292.667 74.083 C 292.667 74.221,292.737 74.333,292.823 74.333 C 292.909 74.333,293.030 74.671,293.092 75.083 C 293.154 75.496,293.265 75.833,293.339 75.833 C 293.413 75.833,293.523 76.058,293.583 76.333 C 293.644 76.608,293.762 76.833,293.847 76.833 C 293.931 76.833,294.000 76.946,294.000 77.083 C 294.000 77.221,294.069 77.333,294.153 77.333 C 294.238 77.333,294.358 77.565,294.420 77.847 C 294.548 78.433,294.091 78.950,293.000 79.450 C 292.862 79.513,292.651 79.663,292.530 79.782 C 292.409 79.902,292.210 80.000,292.089 80.000 C 291.968 80.000,291.825 80.114,291.772 80.253 C 291.719 80.391,291.486 80.577,291.254 80.665 C 291.023 80.753,290.833 80.902,290.833 80.996 C 290.833 81.090,290.681 81.167,290.495 81.167 C 290.309 81.167,290.113 81.279,290.060 81.417 C 290.008 81.554,289.860 81.667,289.732 81.667 C 289.604 81.667,289.500 81.740,289.500 81.830 C 289.500 81.920,289.313 82.041,289.083 82.098 C 288.854 82.156,288.667 82.265,288.667 82.340 C 288.667 82.416,288.498 82.531,288.292 82.596 C 288.085 82.661,287.804 82.843,287.667 83.000 C 287.529 83.157,287.248 83.339,287.042 83.404 C 286.835 83.469,286.667 83.592,286.667 83.678 C 286.667 83.763,286.588 83.833,286.492 83.833 C 286.396 83.833,286.152 84.010,285.950 84.227 C 285.749 84.443,285.415 84.673,285.208 84.738 C 285.002 84.803,284.833 84.926,284.833 85.011 C 284.833 85.097,284.721 85.167,284.583 85.167 C 284.446 85.167,284.333 85.237,284.333 85.322 C 284.333 85.408,284.168 85.530,283.966 85.594 C 283.764 85.658,283.496 85.813,283.371 85.939 C 283.245 86.064,283.041 86.167,282.916 86.167 C 282.791 86.167,282.642 86.317,282.583 86.500 C 282.525 86.684,282.331 86.833,282.150 86.833 C 281.970 86.833,281.780 86.946,281.727 87.083 C 281.674 87.221,281.497 87.333,281.333 87.333 C 281.170 87.333,280.992 87.446,280.940 87.583 C 280.887 87.721,280.729 87.833,280.589 87.833 C 280.448 87.833,280.333 87.903,280.333 87.989 C 280.333 88.074,280.165 88.197,279.958 88.263 C 279.752 88.328,279.471 88.510,279.333 88.667 C 279.196 88.824,278.915 89.006,278.708 89.071 C 278.502 89.136,278.333 89.250,278.333 89.325 C 278.333 89.400,278.202 89.505,278.042 89.559 C 277.627 89.698,277.106 90.048,276.950 90.292 C 276.877 90.406,276.676 90.500,276.503 90.500 C 276.330 90.500,276.142 90.650,276.083 90.833 C 276.025 91.017,275.875 91.167,275.751 91.167 C 275.626 91.167,275.421 91.269,275.296 91.395 C 275.170 91.520,274.903 91.675,274.701 91.739 C 274.499 91.803,274.333 91.926,274.333 92.011 C 274.333 92.097,274.221 92.167,274.083 92.167 C 273.946 92.167,273.833 92.237,273.833 92.322 C 273.833 92.408,273.668 92.530,273.466 92.594 C 273.264 92.658,272.996 92.813,272.871 92.939 C 272.745 93.064,272.541 93.167,272.416 93.167 C 272.291 93.167,272.143 93.313,272.086 93.491 C 272.029 93.670,271.818 93.868,271.616 93.932 C 271.415 93.996,271.137 94.176,271.000 94.333 C 270.862 94.490,270.581 94.672,270.375 94.737 C 270.169 94.803,270.000 94.918,270.000 94.993 C 270.000 95.069,269.813 95.178,269.583 95.235 C 269.354 95.293,269.167 95.413,269.167 95.503 C 269.167 95.593,269.062 95.667,268.934 95.667 C 268.807 95.667,268.659 95.779,268.606 95.917 C 268.554 96.054,268.366 96.167,268.190 96.167 C 268.013 96.167,267.826 96.279,267.773 96.417 C 267.720 96.554,267.567 96.667,267.431 96.667 C 267.296 96.667,267.088 96.806,266.968 96.976 C 266.848 97.146,266.581 97.339,266.375 97.404 C 266.169 97.469,266.000 97.592,266.000 97.678 C 266.000 97.763,265.887 97.833,265.750 97.833 C 265.612 97.833,265.500 97.907,265.500 97.997 C 265.500 98.087,265.313 98.207,265.083 98.265 C 264.854 98.322,264.667 98.431,264.667 98.507 C 264.667 98.582,264.498 98.697,264.292 98.763 C 264.085 98.828,263.804 99.007,263.667 99.160 C 263.529 99.314,263.285 99.488,263.125 99.548 C 262.965 99.608,262.833 99.734,262.833 99.828 C 262.833 99.923,262.681 100.000,262.495 100.000 C 262.309 100.000,262.113 100.112,262.060 100.250 C 262.008 100.388,261.830 100.500,261.667 100.500 C 261.503 100.500,261.326 100.613,261.273 100.750 C 261.220 100.888,261.090 101.000,260.983 101.000 C 260.876 101.000,260.668 101.139,260.520 101.309 C 260.371 101.480,260.081 101.672,259.875 101.737 C 259.669 101.803,259.500 101.918,259.500 101.993 C 259.500 102.069,259.313 102.178,259.083 102.235 C 258.854 102.293,258.667 102.413,258.667 102.503 C 258.667 102.593,258.582 102.667,258.477 102.667 C 258.373 102.667,258.123 102.845,257.920 103.064 C 257.718 103.282,257.390 103.512,257.193 103.575 C 256.995 103.638,256.833 103.759,256.833 103.845 C 256.833 103.930,256.721 104.000,256.583 104.000 C 256.446 104.000,256.333 104.074,256.333 104.163 C 256.333 104.253,256.146 104.374,255.917 104.432 C 255.688 104.489,255.500 104.586,255.500 104.647 C 255.500 104.708,255.237 104.899,254.917 105.072 C 254.596 105.244,254.333 105.449,254.333 105.526 C 254.333 105.603,254.218 105.667,254.078 105.667 C 253.938 105.667,253.780 105.779,253.727 105.917 C 253.674 106.054,253.497 106.167,253.333 106.167 C 253.170 106.167,252.992 106.279,252.940 106.417 C 252.887 106.554,252.729 106.667,252.589 106.667 C 252.448 106.667,252.333 106.737,252.333 106.822 C 252.333 106.908,252.165 107.031,251.958 107.096 C 251.752 107.161,251.471 107.343,251.333 107.500 C 251.196 107.657,250.915 107.839,250.708 107.904 C 250.502 107.969,250.333 108.084,250.333 108.158 C 250.333 108.233,250.202 108.339,250.042 108.392 C 249.627 108.532,249.106 108.881,248.950 109.125 C 248.877 109.240,248.676 109.333,248.503 109.333 C 248.330 109.333,248.142 109.483,248.083 109.667 C 248.025 109.851,247.831 110.000,247.650 110.000 C 247.470 110.000,247.282 110.106,247.233 110.235 C 247.183 110.364,246.960 110.516,246.738 110.571 C 246.515 110.627,246.333 110.747,246.333 110.837 C 246.333 110.926,246.221 111.000,246.083 111.000 C 245.946 111.000,245.833 111.070,245.833 111.155 C 245.833 111.241,245.668 111.363,245.466 111.427 C 245.264 111.492,244.996 111.647,244.871 111.772 C 244.745 111.897,244.554 112.000,244.444 112.000 C 244.335 112.000,244.105 112.187,243.933 112.417 C 243.761 112.646,243.546 112.833,243.455 112.833 C 243.364 112.833,243.168 112.973,243.020 113.143 C 242.871 113.313,242.581 113.506,242.375 113.571 C 242.169 113.636,242.000 113.751,242.000 113.826 C 242.000 113.902,241.813 114.011,241.583 114.068 C 241.354 114.126,241.167 114.247,241.167 114.337 C 241.167 114.426,241.054 114.500,240.917 114.500 C 240.779 114.500,240.667 114.574,240.667 114.663 C 240.667 114.753,240.485 114.873,240.262 114.929 C 240.040 114.984,239.817 115.136,239.767 115.265 C 239.718 115.394,239.530 115.500,239.350 115.500 C 239.170 115.500,238.977 115.643,238.922 115.817 C 238.867 115.991,238.637 116.180,238.411 116.237 C 238.185 116.293,238.000 116.413,238.000 116.503 C 238.000 116.593,237.887 116.667,237.750 116.667 C 237.612 116.667,237.500 116.737,237.500 116.822 C 237.500 116.908,237.350 117.025,237.167 117.083 C 236.983 117.142,236.833 117.291,236.833 117.416 C 236.833 117.541,236.702 117.774,236.542 117.935 C 236.294 118.184,236.250 118.554,236.250 120.417 C 236.250 122.281,236.293 122.651,236.542 122.899 C 236.702 123.059,236.833 123.265,236.833 123.356 C 236.833 123.599,238.007 124.667,238.273 124.667 C 238.398 124.667,238.500 124.742,238.500 124.833 C 238.500 124.925,238.612 125.000,238.750 125.000 C 238.887 125.000,239.000 125.075,239.000 125.167 C 239.000 125.263,239.528 125.333,240.250 125.333 C 240.972 125.333,241.500 125.263,241.500 125.167 C 241.500 125.075,241.688 125.000,241.917 125.000 C 242.146 125.000,242.333 124.933,242.333 124.851 C 242.333 124.770,242.521 124.656,242.750 124.598 C 242.979 124.541,243.167 124.420,243.167 124.330 C 243.167 124.240,243.282 124.167,243.422 124.167 C 243.562 124.167,243.720 124.054,243.773 123.917 C 243.826 123.779,244.003 123.667,244.167 123.667 C 244.330 123.667,244.508 123.554,244.560 123.417 C 244.613 123.279,244.804 123.167,244.984 123.167 C 245.164 123.167,245.358 123.018,245.417 122.833 C 245.475 122.650,245.625 122.500,245.749 122.500 C 245.874 122.500,246.079 122.397,246.204 122.272 C 246.330 122.147,246.597 121.992,246.799 121.927 C 247.001 121.863,247.167 121.741,247.167 121.655 C 247.167 121.570,247.279 121.500,247.417 121.500 C 247.554 121.500,247.667 121.430,247.667 121.345 C 247.667 121.259,247.835 121.136,248.042 121.071 C 248.248 121.007,248.582 120.777,248.784 120.560 C 248.986 120.344,249.229 120.167,249.325 120.167 C 249.421 120.167,249.500 120.097,249.500 120.011 C 249.500 119.926,249.669 119.803,249.875 119.737 C 250.081 119.672,250.362 119.490,250.500 119.333 C 250.637 119.176,250.919 118.994,251.125 118.929 C 251.331 118.864,251.500 118.749,251.500 118.674 C 251.500 118.598,251.688 118.489,251.917 118.432 C 252.146 118.374,252.333 118.253,252.333 118.163 C 252.333 118.074,252.438 118.000,252.566 118.000 C 252.693 118.000,252.841 117.888,252.894 117.750 C 252.946 117.612,253.134 117.500,253.310 117.500 C 253.487 117.500,253.674 117.388,253.727 117.250 C 253.780 117.112,253.910 117.000,254.017 117.000 C 254.124 117.000,254.332 116.861,254.480 116.691 C 254.629 116.520,254.919 116.328,255.125 116.263 C 255.331 116.197,255.500 116.074,255.500 115.989 C 255.500 115.903,255.612 115.833,255.750 115.833 C 255.887 115.833,256.000 115.763,256.000 115.678 C 256.000 115.592,256.165 115.470,256.367 115.406 C 256.569 115.342,256.837 115.187,256.962 115.061 C 257.088 114.936,257.293 114.833,257.417 114.833 C 257.542 114.833,257.692 114.683,257.750 114.500 C 257.808 114.316,258.002 114.167,258.183 114.167 C 258.363 114.167,258.554 114.054,258.606 113.917 C 258.659 113.779,258.847 113.667,259.023 113.667 C 259.199 113.667,259.387 113.554,259.440 113.417 C 259.492 113.279,259.640 113.167,259.768 113.167 C 259.896 113.167,260.000 113.097,260.000 113.011 C 260.000 112.926,260.169 112.803,260.375 112.737 C 260.581 112.672,260.862 112.490,261.000 112.333 C 261.137 112.176,261.419 111.994,261.625 111.929 C 261.831 111.864,262.000 111.749,262.000 111.674 C 262.000 111.598,262.183 111.490,262.406 111.434 C 262.629 111.378,262.859 111.183,262.917 111.000 C 262.975 110.816,263.125 110.667,263.249 110.667 C 263.374 110.667,263.579 110.564,263.704 110.439 C 263.830 110.313,264.097 110.158,264.299 110.094 C 264.501 110.030,264.667 109.908,264.667 109.822 C 264.667 109.737,264.779 109.667,264.917 109.667 C 265.054 109.667,265.167 109.597,265.167 109.511 C 265.167 109.426,265.335 109.303,265.542 109.237 C 265.748 109.172,266.029 108.993,266.167 108.840 C 266.304 108.686,266.548 108.512,266.708 108.452 C 266.869 108.392,267.000 108.266,267.000 108.172 C 267.000 108.077,267.152 108.000,267.339 108.000 C 267.525 108.000,267.720 107.888,267.773 107.750 C 267.826 107.613,268.003 107.500,268.167 107.500 C 268.330 107.500,268.508 107.388,268.560 107.250 C 268.613 107.113,268.771 107.000,268.911 107.000 C 269.052 107.000,269.167 106.930,269.167 106.845 C 269.167 106.759,269.335 106.636,269.542 106.571 C 269.748 106.506,270.029 106.324,270.167 106.167 C 270.304 106.010,270.585 105.828,270.792 105.763 C 270.998 105.697,271.167 105.574,271.167 105.489 C 271.167 105.403,271.279 105.333,271.417 105.333 C 271.554 105.333,271.667 105.260,271.667 105.170 C 271.667 105.080,271.849 104.961,272.071 104.905 C 272.294 104.849,272.516 104.698,272.566 104.568 C 272.616 104.439,272.804 104.333,272.984 104.333 C 273.164 104.333,273.358 104.184,273.417 104.000 C 273.475 103.817,273.625 103.667,273.749 103.667 C 273.874 103.667,274.079 103.564,274.204 103.439 C 274.330 103.313,274.597 103.158,274.799 103.094 C 275.001 103.030,275.167 102.908,275.167 102.822 C 275.167 102.737,275.279 102.667,275.417 102.667 C 275.554 102.667,275.667 102.597,275.667 102.511 C 275.667 102.426,275.835 102.303,276.042 102.238 C 276.248 102.173,276.582 101.943,276.784 101.727 C 276.986 101.510,277.229 101.333,277.325 101.333 C 277.421 101.333,277.500 101.263,277.500 101.178 C 277.500 101.092,277.669 100.969,277.875 100.904 C 278.081 100.839,278.362 100.657,278.500 100.500 C 278.637 100.343,278.919 100.161,279.125 100.096 C 279.331 100.031,279.500 99.916,279.500 99.840 C 279.500 99.765,279.688 99.656,279.917 99.598 C 280.146 99.541,280.333 99.420,280.333 99.330 C 280.333 99.240,280.438 99.167,280.566 99.167 C 280.693 99.167,280.841 99.054,280.894 98.917 C 280.946 98.779,281.134 98.667,281.310 98.667 C 281.487 98.667,281.674 98.554,281.727 98.417 C 281.780 98.279,281.933 98.167,282.069 98.167 C 282.204 98.167,282.412 98.027,282.532 97.857 C 282.652 97.687,282.919 97.495,283.125 97.429 C 283.331 97.364,283.500 97.241,283.500 97.155 C 283.500 97.070,283.612 97.000,283.750 97.000 C 283.887 97.000,284.000 96.926,284.000 96.837 C 284.000 96.747,284.188 96.626,284.417 96.568 C 284.646 96.511,284.833 96.402,284.833 96.326 C 284.833 96.251,285.002 96.136,285.208 96.071 C 285.415 96.006,285.705 95.813,285.853 95.643 C 286.001 95.473,286.210 95.333,286.316 95.333 C 286.423 95.333,286.554 95.221,286.606 95.083 C 286.659 94.946,286.847 94.833,287.023 94.833 C 287.199 94.833,287.387 94.721,287.440 94.583 C 287.492 94.446,287.640 94.333,287.768 94.333 C 287.896 94.333,288.000 94.263,288.000 94.178 C 288.000 94.092,288.169 93.969,288.375 93.904 C 288.581 93.839,288.862 93.657,289.000 93.500 C 289.137 93.343,289.419 93.161,289.625 93.096 C 289.831 93.031,290.000 92.916,290.000 92.840 C 290.000 92.765,290.183 92.657,290.406 92.601 C 290.629 92.545,290.859 92.349,290.917 92.166 C 290.975 91.983,291.125 91.833,291.249 91.833 C 291.374 91.833,291.579 91.731,291.704 91.605 C 291.830 91.480,292.097 91.325,292.299 91.261 C 292.501 91.197,292.667 91.074,292.667 90.989 C 292.667 90.903,292.779 90.833,292.917 90.833 C 293.054 90.833,293.167 90.763,293.167 90.678 C 293.167 90.592,293.335 90.469,293.542 90.404 C 293.748 90.339,294.029 90.157,294.167 90.000 C 294.304 89.843,294.585 89.661,294.792 89.596 C 294.998 89.531,295.167 89.408,295.167 89.322 C 295.167 89.237,295.282 89.167,295.422 89.167 C 295.562 89.167,295.720 89.054,295.773 88.917 C 295.826 88.779,296.003 88.667,296.167 88.667 C 296.330 88.667,296.508 88.554,296.560 88.417 C 296.613 88.279,296.771 88.167,296.911 88.167 C 297.052 88.167,297.167 88.097,297.167 88.011 C 297.167 87.926,297.335 87.803,297.542 87.737 C 297.748 87.672,298.029 87.490,298.167 87.333 C 298.304 87.176,298.585 86.994,298.792 86.929 C 298.998 86.864,299.167 86.741,299.167 86.655 C 299.167 86.570,299.273 86.500,299.403 86.500 C 299.533 86.500,299.683 86.406,299.736 86.292 C 299.814 86.125,299.853 86.126,299.931 86.293 C 299.985 86.409,300.247 86.722,300.514 86.989 C 300.781 87.256,301.000 87.522,301.000 87.580 C 301.000 87.759,305.453 92.167,305.635 92.167 C 305.729 92.167,305.837 92.260,305.875 92.375 C 305.926 92.527,306.504 92.583,308.000 92.583 C 309.496 92.583,310.074 92.527,310.125 92.375 C 310.163 92.260,310.269 92.167,310.360 92.167 C 310.451 92.167,310.742 91.960,311.008 91.708 C 311.273 91.456,311.586 91.160,311.703 91.050 C 312.083 90.693,312.333 90.351,312.333 90.188 C 312.333 90.100,312.426 89.997,312.539 89.959 C 312.853 89.855,312.821 86.856,312.500 86.247 C 312.362 85.986,311.556 85.075,310.708 84.223 C 309.860 83.371,309.167 82.565,309.167 82.432 C 309.167 82.298,309.021 82.143,308.842 82.086 C 308.663 82.029,308.472 81.841,308.417 81.667 C 308.361 81.493,308.174 81.305,308.000 81.250 C 307.826 81.195,307.632 80.985,307.569 80.783 C 307.505 80.582,307.277 80.251,307.060 80.050 C 306.844 79.848,306.667 79.622,306.667 79.548 C 306.667 79.474,306.498 79.223,306.292 78.989 C 305.824 78.461,305.518 78.000,305.395 77.637 C 305.343 77.482,305.195 77.316,305.067 77.267 C 304.938 77.217,304.833 77.030,304.833 76.850 C 304.833 76.670,304.691 76.477,304.517 76.422 C 304.342 76.367,304.153 76.137,304.097 75.911 C 304.040 75.685,303.923 75.500,303.838 75.500 C 303.752 75.500,303.633 75.237,303.572 74.917 C 303.512 74.596,303.396 74.333,303.315 74.333 C 303.233 74.333,303.167 74.221,303.167 74.083 C 303.167 73.946,303.098 73.833,303.013 73.833 C 302.929 73.833,302.810 73.608,302.750 73.333 C 302.690 73.058,302.575 72.833,302.494 72.833 C 302.414 72.833,302.299 72.571,302.239 72.250 C 302.179 71.929,302.063 71.667,301.981 71.667 C 301.900 71.667,301.833 71.554,301.833 71.417 C 301.833 71.279,301.759 71.167,301.669 71.167 C 301.578 71.167,301.456 70.867,301.397 70.500 C 301.339 70.133,301.225 69.833,301.145 69.833 C 301.065 69.833,301.000 69.721,301.000 69.583 C 301.000 69.446,300.935 69.333,300.855 69.333 C 300.775 69.333,300.661 69.033,300.603 68.667 C 300.544 68.300,300.429 68.000,300.347 68.000 C 300.265 68.000,300.146 67.625,300.083 67.167 C 300.020 66.708,299.901 66.333,299.818 66.333 C 299.735 66.333,299.667 66.108,299.667 65.833 C 299.667 65.558,299.595 65.333,299.508 65.333 C 299.421 65.333,299.299 64.883,299.237 64.333 C 299.175 63.783,299.066 63.333,298.996 63.333 C 298.926 63.333,298.815 62.733,298.750 62.000 C 298.685 61.267,298.565 60.667,298.483 60.667 C 298.401 60.667,298.333 60.260,298.333 59.764 C 298.333 59.192,298.257 58.836,298.126 58.792 C 297.832 58.694,297.839 48.970,298.133 48.872 C 298.253 48.832,298.333 48.475,298.333 47.986 C 298.333 47.535,298.401 47.167,298.483 47.167 C 298.565 47.167,298.685 46.567,298.750 45.833 C 298.815 45.100,298.927 44.500,298.998 44.500 C 299.070 44.500,299.180 44.087,299.243 43.583 C 299.306 43.079,299.427 42.667,299.512 42.667 C 299.597 42.667,299.667 42.479,299.667 42.250 C 299.667 42.021,299.735 41.833,299.818 41.833 C 299.901 41.833,300.020 41.458,300.083 41.000 C 300.146 40.542,300.259 40.167,300.334 40.167 C 300.409 40.167,300.521 39.867,300.583 39.500 C 300.645 39.133,300.764 38.833,300.848 38.833 C 300.932 38.833,301.000 38.646,301.000 38.417 C 301.000 38.188,301.069 38.000,301.153 38.000 C 301.238 38.000,301.356 37.775,301.417 37.500 C 301.477 37.225,301.596 37.000,301.680 37.000 C 301.764 37.000,301.833 36.887,301.833 36.750 C 301.833 36.612,301.905 36.500,301.992 36.500 C 302.080 36.500,302.201 36.237,302.261 35.917 C 302.321 35.596,302.431 35.333,302.505 35.333 C 302.579 35.333,302.690 35.108,302.750 34.833 C 302.810 34.558,302.929 34.333,303.013 34.333 C 303.098 34.333,303.167 34.221,303.167 34.083 C 303.167 33.946,303.240 33.833,303.330 33.833 C 303.420 33.833,303.541 33.646,303.598 33.417 C 303.656 33.188,303.762 33.000,303.833 33.000 C 303.905 33.000,304.011 32.813,304.068 32.583 C 304.126 32.354,304.247 32.167,304.337 32.167 C 304.426 32.167,304.500 32.054,304.500 31.917 C 304.500 31.779,304.574 31.667,304.663 31.667 C 304.753 31.667,304.870 31.494,304.924 31.282 C 304.977 31.070,305.203 30.760,305.427 30.592 C 305.650 30.424,305.833 30.181,305.833 30.052 C 305.833 29.923,306.021 29.644,306.250 29.431 C 306.479 29.219,306.667 28.992,306.667 28.926 C 306.667 28.861,306.892 28.583,307.167 28.308 C 307.442 28.033,307.667 27.744,307.667 27.665 C 307.667 27.587,307.817 27.475,308.000 27.417 C 308.183 27.358,308.333 27.209,308.333 27.085 C 308.333 26.832,311.584 23.500,311.830 23.500 C 311.917 23.500,312.274 23.210,312.625 22.856 C 312.976 22.501,313.425 22.160,313.623 22.097 C 313.821 22.034,314.029 21.837,314.086 21.659 C 314.143 21.480,314.371 21.288,314.594 21.232 C 314.817 21.176,315.000 21.069,315.000 20.993 C 315.000 20.918,315.169 20.803,315.375 20.737 C 315.581 20.672,315.862 20.493,316.000 20.340 C 316.137 20.186,316.381 20.012,316.542 19.952 C 316.702 19.892,316.833 19.766,316.833 19.672 C 316.833 19.577,316.975 19.500,317.149 19.500 C 317.322 19.500,317.508 19.388,317.560 19.250 C 317.613 19.113,317.771 19.000,317.911 19.000 C 318.052 19.000,318.167 18.925,318.167 18.833 C 318.167 18.742,318.319 18.667,318.505 18.667 C 318.691 18.667,318.887 18.554,318.940 18.417 C 318.992 18.279,319.178 18.167,319.351 18.167 C 319.525 18.167,319.667 18.098,319.667 18.013 C 319.667 17.929,319.892 17.810,320.167 17.750 C 320.442 17.690,320.667 17.571,320.667 17.487 C 320.667 17.402,320.749 17.333,320.850 17.333 C 321.071 17.333,322.216 16.812,322.333 16.658 C 322.379 16.597,322.698 16.496,323.042 16.433 C 323.385 16.370,323.667 16.247,323.667 16.159 C 323.667 16.072,323.779 16.000,323.917 16.000 C 324.054 16.000,324.167 15.932,324.167 15.849 C 324.167 15.766,324.542 15.646,325.000 15.583 C 325.458 15.520,325.833 15.409,325.833 15.337 C 325.833 15.264,326.171 15.154,326.583 15.092 C 326.996 15.030,327.333 14.909,327.333 14.823 C 327.333 14.737,327.521 14.667,327.750 14.667 C 327.979 14.667,328.167 14.600,328.167 14.519 C 328.167 14.438,328.654 14.320,329.250 14.256 C 329.846 14.192,330.333 14.077,330.333 13.999 C 330.333 13.922,331.008 13.806,331.833 13.741 C 332.658 13.676,333.333 13.558,333.333 13.479 C 333.333 13.399,333.821 13.333,334.417 13.333 C 335.028 13.333,335.500 13.261,335.500 13.167 C 335.500 13.060,336.861 13.000,339.250 13.000 C 341.639 13.000,343.000 13.060,343.000 13.167 C 343.000 13.261,343.472 13.333,344.083 13.333 C 344.679 13.333,345.167 13.401,345.167 13.483 C 345.167 13.565,345.767 13.685,346.500 13.750 C 347.233 13.815,347.833 13.926,347.833 13.998 C 347.833 14.069,348.321 14.180,348.917 14.244 C 349.512 14.308,350.000 14.429,350.000 14.513 C 350.000 14.598,350.262 14.667,350.583 14.667 C 350.904 14.667,351.167 14.733,351.167 14.814 C 351.167 14.896,351.504 15.013,351.917 15.075 C 352.329 15.136,352.667 15.251,352.667 15.329 C 352.667 15.407,352.967 15.521,353.333 15.583 C 353.700 15.645,354.000 15.764,354.000 15.848 C 354.000 15.932,354.188 16.000,354.417 16.000 C 354.646 16.000,354.833 16.067,354.833 16.148 C 354.833 16.230,355.096 16.345,355.417 16.406 C 355.738 16.466,356.000 16.587,356.000 16.674 C 356.000 16.762,356.113 16.833,356.250 16.833 C 356.387 16.833,356.500 16.902,356.500 16.987 C 356.500 17.071,356.725 17.190,357.000 17.250 C 357.275 17.310,357.500 17.421,357.500 17.495 C 357.500 17.569,357.762 17.679,358.083 17.739 C 358.404 17.799,358.667 17.920,358.667 18.008 C 358.667 18.095,358.779 18.167,358.917 18.167 C 359.054 18.167,359.167 18.238,359.167 18.326 C 359.167 18.413,359.429 18.534,359.750 18.594 C 360.071 18.655,360.333 18.773,360.333 18.857 C 360.333 18.941,360.465 19.059,360.625 19.119 C 360.785 19.178,361.029 19.353,361.167 19.506 C 361.304 19.660,361.585 19.839,361.792 19.904 C 361.998 19.969,362.167 20.092,362.167 20.178 C 362.167 20.263,362.279 20.333,362.417 20.333 C 362.554 20.333,362.667 20.403,362.667 20.489 C 362.667 20.574,362.835 20.697,363.042 20.762 C 363.248 20.827,363.582 21.057,363.784 21.273 C 363.986 21.490,364.217 21.667,364.298 21.667 C 364.378 21.667,364.663 21.890,364.931 22.162 C 365.198 22.434,365.548 22.659,365.708 22.662 C 365.869 22.665,366.000 22.737,366.000 22.823 C 366.000 22.908,366.721 23.687,367.603 24.553 C 369.612 26.527,369.406 26.322,370.011 26.958 C 370.294 27.256,370.590 27.500,370.668 27.500 C 370.747 27.500,370.863 27.669,370.927 27.875 C 370.992 28.081,371.297 28.497,371.605 28.800 C 371.914 29.102,372.167 29.417,372.167 29.500 C 372.167 29.584,372.339 29.824,372.550 30.035 C 372.760 30.245,372.983 30.549,373.044 30.709 C 373.106 30.869,373.234 31.000,373.328 31.000 C 373.423 31.000,373.500 31.152,373.500 31.339 C 373.500 31.525,373.613 31.720,373.750 31.773 C 373.887 31.826,374.000 32.003,374.000 32.167 C 374.000 32.330,374.113 32.508,374.250 32.560 C 374.387 32.613,374.500 32.771,374.500 32.911 C 374.500 33.052,374.575 33.167,374.667 33.167 C 374.758 33.167,374.833 33.309,374.833 33.482 C 374.833 33.656,374.946 33.841,375.083 33.894 C 375.221 33.946,375.333 34.104,375.333 34.245 C 375.333 34.385,375.400 34.500,375.481 34.500 C 375.563 34.500,375.679 34.762,375.739 35.083 C 375.799 35.404,375.920 35.667,376.008 35.667 C 376.095 35.667,376.167 35.779,376.167 35.917 C 376.167 36.054,376.238 36.167,376.326 36.167 C 376.413 36.167,376.534 36.429,376.594 36.750 C 376.655 37.071,376.770 37.333,376.850 37.333 C 376.930 37.333,377.044 37.633,377.103 38.000 C 377.161 38.367,377.275 38.667,377.355 38.667 C 377.435 38.667,377.500 38.779,377.500 38.917 C 377.500 39.054,377.565 39.167,377.645 39.167 C 377.725 39.167,377.839 39.467,377.897 39.833 C 377.956 40.200,378.078 40.500,378.169 40.500 C 378.259 40.500,378.333 40.688,378.333 40.917 C 378.333 41.146,378.403 41.333,378.488 41.333 C 378.573 41.333,378.694 41.746,378.757 42.250 C 378.820 42.754,378.933 43.167,379.007 43.167 C 379.082 43.167,379.194 43.579,379.257 44.083 C 379.320 44.587,379.438 45.000,379.519 45.000 C 379.600 45.000,379.667 45.331,379.667 45.736 C 379.667 46.141,379.738 46.497,379.826 46.528 C 379.914 46.558,380.037 47.390,380.101 48.375 C 380.164 49.360,380.280 50.167,380.358 50.167 C 380.436 50.167,380.500 51.854,380.500 53.917 C 380.500 55.979,380.436 57.667,380.357 57.667 C 380.278 57.667,380.161 58.510,380.097 59.542 C 380.032 60.573,379.909 61.442,379.823 61.472 C 379.737 61.503,379.667 61.822,379.667 62.181 C 379.667 62.540,379.598 62.833,379.513 62.833 C 379.429 62.833,379.308 63.321,379.244 63.917 C 379.180 64.512,379.069 65.000,378.996 65.000 C 378.924 65.000,378.813 65.375,378.750 65.833 C 378.687 66.292,378.567 66.667,378.484 66.667 C 378.401 66.667,378.333 66.817,378.333 67.000 C 378.333 67.183,378.265 67.333,378.182 67.333 C 378.099 67.333,377.980 67.708,377.917 68.167 C 377.854 68.625,377.734 69.000,377.651 69.000 C 377.568 69.000,377.500 69.112,377.500 69.250 C 377.500 69.387,377.435 69.500,377.355 69.500 C 377.275 69.500,377.161 69.800,377.103 70.167 C 377.044 70.533,376.930 70.833,376.850 70.833 C 376.770 70.833,376.655 71.096,376.594 71.417 C 376.534 71.737,376.413 72.000,376.326 72.000 C 376.238 72.000,376.167 72.112,376.167 72.250 C 376.167 72.387,376.095 72.500,376.008 72.500 C 375.920 72.500,375.799 72.762,375.739 73.083 C 375.679 73.404,375.569 73.667,375.495 73.667 C 375.421 73.667,375.310 73.892,375.250 74.167 C 375.190 74.442,375.071 74.667,374.987 74.667 C 374.902 74.667,374.833 74.779,374.833 74.917 C 374.833 75.054,374.760 75.167,374.670 75.167 C 374.580 75.167,374.459 75.354,374.402 75.583 C 374.344 75.813,374.230 76.000,374.149 76.000 C 374.067 76.000,374.000 76.112,374.000 76.250 C 374.000 76.387,373.930 76.500,373.845 76.500 C 373.759 76.500,373.637 76.665,373.573 76.867 C 373.508 77.069,373.353 77.337,373.228 77.462 C 373.103 77.588,373.000 77.780,373.000 77.889 C 373.000 77.998,372.813 78.228,372.583 78.400 C 372.354 78.573,372.167 78.802,372.167 78.911 C 372.167 79.020,371.979 79.285,371.750 79.500 C 371.521 79.715,371.333 79.963,371.333 80.051 C 371.333 80.139,371.071 80.458,370.750 80.761 C 370.429 81.063,370.167 81.382,370.167 81.470 C 370.167 81.670,367.014 84.833,366.814 84.833 C 366.733 84.833,366.667 84.980,366.667 85.158 C 366.667 85.337,366.535 85.557,366.375 85.647 C 366.004 85.854,365.927 89.837,366.292 89.958 C 366.406 89.997,366.500 90.131,366.500 90.257 C 366.500 90.559,367.791 91.833,368.097 91.833 C 368.227 91.833,368.333 91.908,368.333 92.000 C 368.333 92.092,368.440 92.167,368.569 92.167 C 368.699 92.167,368.837 92.260,368.875 92.375 C 368.924 92.523,369.420 92.583,370.583 92.583 C 371.746 92.583,372.242 92.523,372.292 92.375 C 372.330 92.260,372.505 92.167,372.681 92.167 C 372.856 92.167,373.000 92.092,373.000 92.000 C 373.000 91.908,373.096 91.833,373.213 91.833 C 373.330 91.833,373.550 91.702,373.701 91.542 C 373.853 91.381,374.076 91.160,374.197 91.050 C 374.318 90.939,374.508 90.752,374.620 90.633 C 374.732 90.514,374.910 90.332,375.015 90.228 C 375.120 90.125,375.428 89.806,375.699 89.520 C 375.970 89.234,376.256 89.000,376.335 89.000 C 376.413 89.000,376.530 88.834,376.595 88.631 C 376.659 88.429,377.001 87.976,377.356 87.625 C 377.710 87.274,378.000 86.910,378.000 86.816 C 378.000 86.721,378.252 86.406,378.560 86.114 C 378.868 85.822,379.172 85.418,379.235 85.217 C 379.299 85.015,379.497 84.804,379.675 84.747 C 379.854 84.691,380.000 84.542,380.000 84.417 C 380.000 84.293,380.103 84.088,380.228 83.962 C 380.353 83.837,380.508 83.569,380.573 83.367 C 380.637 83.165,380.759 83.000,380.845 83.000 C 380.930 83.000,381.000 82.887,381.000 82.750 C 381.000 82.612,381.074 82.500,381.163 82.500 C 381.253 82.500,381.374 82.313,381.432 82.083 C 381.489 81.854,381.603 81.667,381.685 81.667 C 381.766 81.667,381.833 81.554,381.833 81.417 C 381.833 81.279,381.907 81.167,381.997 81.167 C 382.087 81.167,382.207 80.979,382.265 80.750 C 382.322 80.521,382.428 80.333,382.500 80.333 C 382.572 80.333,382.678 80.146,382.735 79.917 C 382.793 79.688,382.913 79.500,383.003 79.500 C 383.093 79.500,383.167 79.387,383.167 79.250 C 383.167 79.112,383.238 79.000,383.326 79.000 C 383.413 79.000,383.534 78.737,383.594 78.417 C 383.655 78.096,383.764 77.833,383.839 77.833 C 383.913 77.833,384.023 77.608,384.083 77.333 C 384.144 77.058,384.262 76.833,384.347 76.833 C 384.431 76.833,384.500 76.721,384.500 76.583 C 384.500 76.446,384.574 76.333,384.665 76.333 C 384.755 76.333,384.877 76.033,384.936 75.667 C 384.995 75.300,385.108 75.000,385.188 75.000 C 385.268 75.000,385.333 74.850,385.333 74.667 C 385.333 74.483,385.407 74.333,385.498 74.333 C 385.589 74.333,385.711 74.033,385.769 73.667 C 385.828 73.300,385.935 73.000,386.007 73.000 C 386.079 73.000,386.188 72.700,386.250 72.333 C 386.312 71.967,386.431 71.667,386.515 71.667 C 386.598 71.667,386.667 71.485,386.667 71.264 C 386.667 71.042,386.743 70.836,386.836 70.805 C 386.930 70.773,387.053 70.355,387.110 69.874 C 387.167 69.393,387.272 69.000,387.345 69.000 C 387.417 69.000,387.528 68.587,387.591 68.083 C 387.654 67.579,387.771 67.167,387.853 67.167 C 387.934 67.167,388.000 66.904,388.000 66.583 C 388.000 66.262,388.067 66.000,388.149 66.000 C 388.231 66.000,388.352 65.400,388.417 64.667 C 388.482 63.933,388.602 63.333,388.684 63.333 C 388.766 63.333,388.833 62.927,388.833 62.431 C 388.833 61.856,388.909 61.502,389.042 61.458 C 389.346 61.357,389.346 47.143,389.042 47.042 C 388.913 46.999,388.833 46.660,388.833 46.153 C 388.833 45.702,388.768 45.333,388.688 45.333 C 388.608 45.333,388.490 44.658,388.426 43.833 C 388.361 43.008,388.239 42.333,388.154 42.333 C 388.069 42.333,388.000 42.108,388.000 41.833 C 388.000 41.558,387.935 41.333,387.857 41.333 C 387.778 41.333,387.667 40.940,387.610 40.459 C 387.553 39.979,387.433 39.561,387.343 39.531 C 387.254 39.501,387.130 39.032,387.069 38.488 C 387.007 37.945,386.892 37.500,386.812 37.500 C 386.732 37.500,386.667 37.387,386.667 37.250 C 386.667 37.112,386.599 37.000,386.516 37.000 C 386.433 37.000,386.313 36.625,386.250 36.167 C 386.187 35.708,386.068 35.333,385.986 35.333 C 385.904 35.333,385.789 35.033,385.731 34.667 C 385.672 34.300,385.559 34.000,385.479 34.000 C 385.399 34.000,385.333 33.887,385.333 33.750 C 385.333 33.612,385.264 33.500,385.180 33.500 C 385.096 33.500,384.977 33.275,384.917 33.000 C 384.856 32.725,384.738 32.500,384.653 32.500 C 384.569 32.500,384.500 32.313,384.500 32.083 C 384.500 31.854,384.433 31.667,384.352 31.667 C 384.270 31.667,384.155 31.404,384.094 31.083 C 384.034 30.762,383.921 30.500,383.844 30.500 C 383.766 30.500,383.656 30.313,383.598 30.083 C 383.541 29.854,383.420 29.667,383.330 29.667 C 383.240 29.667,383.167 29.554,383.167 29.417 C 383.167 29.279,383.098 29.167,383.013 29.167 C 382.929 29.167,382.810 28.942,382.750 28.667 C 382.690 28.392,382.573 28.167,382.490 28.167 C 382.407 28.167,382.293 27.979,382.235 27.750 C 382.178 27.521,382.064 27.333,381.982 27.333 C 381.900 27.333,381.833 27.221,381.833 27.083 C 381.833 26.946,381.763 26.833,381.678 26.833 C 381.592 26.833,381.469 26.665,381.404 26.458 C 381.339 26.252,381.157 25.971,381.000 25.833 C 380.843 25.696,380.661 25.415,380.596 25.208 C 380.531 25.002,380.408 24.833,380.322 24.833 C 380.237 24.833,380.167 24.731,380.167 24.607 C 380.167 24.482,379.979 24.239,379.750 24.067 C 379.521 23.895,379.333 23.671,379.333 23.569 C 379.333 23.468,379.183 23.211,379.000 23.000 C 378.817 22.789,378.667 22.520,378.667 22.402 C 378.667 22.285,378.521 22.143,378.342 22.086 C 378.163 22.029,377.972 21.841,377.917 21.667 C 377.861 21.493,377.670 21.304,377.491 21.247 C 377.313 21.191,377.167 21.035,377.167 20.901 C 377.167 20.676,372.635 16.000,372.417 16.000 C 372.303 16.000,372.011 15.762,371.341 15.125 C 371.076 14.873,370.806 14.667,370.740 14.667 C 370.675 14.667,370.448 14.479,370.235 14.250 C 370.023 14.021,369.774 13.833,369.682 13.833 C 369.590 13.833,369.337 13.655,369.118 13.437 C 368.900 13.218,368.559 12.988,368.361 12.925 C 368.162 12.862,368.000 12.741,368.000 12.655 C 368.000 12.570,367.896 12.500,367.768 12.500 C 367.640 12.500,367.492 12.387,367.440 12.250 C 367.387 12.112,367.199 12.000,367.023 12.000 C 366.847 12.000,366.659 11.887,366.606 11.750 C 366.554 11.612,366.412 11.500,366.292 11.500 C 366.172 11.500,365.966 11.350,365.834 11.167 C 365.702 10.984,365.348 10.789,365.047 10.732 C 364.746 10.676,364.500 10.563,364.500 10.481 C 364.500 10.400,364.385 10.333,364.245 10.333 C 364.104 10.333,363.946 10.221,363.894 10.083 C 363.841 9.946,363.656 9.833,363.482 9.833 C 363.309 9.833,363.167 9.764,363.167 9.680 C 363.167 9.596,362.942 9.477,362.667 9.417 C 362.392 9.356,362.167 9.255,362.167 9.193 C 362.167 9.069,360.935 8.500,360.666 8.500 C 360.574 8.500,360.500 8.426,360.500 8.335 C 360.500 8.245,360.200 8.123,359.833 8.064 C 359.467 8.005,359.167 7.892,359.167 7.812 C 359.167 7.732,359.054 7.667,358.917 7.667 C 358.779 7.667,358.667 7.601,358.667 7.521 C 358.667 7.441,358.367 7.328,358.000 7.269 C 357.633 7.211,357.333 7.096,357.333 7.014 C 357.333 6.932,356.958 6.813,356.500 6.750 C 356.042 6.687,355.667 6.567,355.667 6.484 C 355.667 6.401,355.479 6.333,355.250 6.333 C 355.021 6.333,354.833 6.264,354.833 6.179 C 354.833 6.094,354.421 5.972,353.917 5.909 C 353.412 5.846,353.000 5.729,353.000 5.647 C 353.000 5.566,352.813 5.500,352.583 5.500 C 352.354 5.500,352.167 5.435,352.167 5.355 C 352.167 5.275,351.642 5.158,351.000 5.095 C 350.358 5.032,349.833 4.917,349.833 4.839 C 349.833 4.762,349.046 4.645,348.083 4.579 C 347.121 4.514,346.333 4.394,346.333 4.313 C 346.333 4.233,345.696 4.167,344.917 4.167 C 344.083 4.167,343.500 4.098,343.500 4.000 C 343.500 3.894,342.111 3.833,339.667 3.833 C 337.222 3.833,335.833 3.894,335.833 4.000 M194.333 14.812 C 194.333 14.892,194.033 15.005,193.667 15.064 C 193.300 15.123,193.000 15.243,193.000 15.332 C 193.000 15.421,192.815 15.540,192.589 15.597 C 192.363 15.653,192.135 15.839,192.081 16.008 C 192.027 16.178,191.841 16.361,191.667 16.417 C 191.493 16.472,191.305 16.659,191.250 16.833 C 191.195 17.007,191.009 17.194,190.836 17.249 C 190.656 17.306,190.474 17.575,190.407 17.883 C 190.344 18.176,190.220 18.462,190.133 18.518 C 190.046 18.573,189.933 18.929,189.882 19.309 C 189.831 19.689,189.724 20.000,189.645 20.000 C 189.565 20.000,189.500 20.675,189.500 21.500 C 189.500 22.325,189.568 23.000,189.651 23.000 C 189.734 23.000,189.853 23.369,189.915 23.821 C 189.979 24.289,190.129 24.681,190.264 24.732 C 190.394 24.782,190.500 24.924,190.500 25.048 C 190.500 25.172,190.688 25.436,190.917 25.636 C 191.146 25.835,191.333 26.111,191.333 26.249 C 191.333 26.387,191.449 26.500,191.591 26.500 C 191.733 26.500,192.018 26.682,192.225 26.905 C 192.431 27.128,192.803 27.361,193.050 27.423 C 193.298 27.485,193.500 27.603,193.500 27.685 C 193.500 27.766,193.606 27.833,193.736 27.833 C 193.866 27.833,194.003 27.927,194.042 28.042 C 194.139 28.334,198.529 28.329,198.627 28.036 C 198.664 27.925,198.801 27.833,198.931 27.833 C 199.060 27.833,199.167 27.762,199.167 27.674 C 199.167 27.587,199.429 27.466,199.750 27.406 C 200.071 27.345,200.333 27.227,200.333 27.143 C 200.333 27.059,200.461 26.941,200.617 26.881 C 200.955 26.751,201.833 25.935,201.833 25.752 C 201.833 25.681,201.973 25.501,202.143 25.353 C 202.313 25.205,202.511 24.896,202.582 24.667 C 202.653 24.438,202.780 24.206,202.863 24.152 C 202.947 24.098,203.060 23.517,203.115 22.861 C 203.170 22.204,203.279 21.667,203.358 21.667 C 203.436 21.667,203.500 21.554,203.500 21.417 C 203.500 21.279,203.436 21.167,203.358 21.167 C 203.279 21.167,203.170 20.629,203.115 19.973 C 203.060 19.316,202.947 18.735,202.863 18.681 C 202.780 18.627,202.658 18.412,202.593 18.204 C 202.438 17.708,200.259 15.500,199.925 15.500 C 199.783 15.500,199.667 15.426,199.667 15.335 C 199.667 15.245,199.367 15.123,199.000 15.064 C 198.633 15.005,198.333 14.892,198.333 14.812 C 198.333 14.732,197.433 14.667,196.333 14.667 C 195.233 14.667,194.333 14.732,194.333 14.812 M216.500 14.812 C 216.500 14.891,216.153 14.996,215.729 15.044 C 215.306 15.091,214.911 15.208,214.853 15.302 C 214.794 15.396,214.549 15.523,214.308 15.584 C 214.067 15.644,213.712 15.875,213.519 16.097 C 213.327 16.319,213.056 16.500,212.918 16.500 C 212.780 16.500,212.667 16.616,212.667 16.758 C 212.667 16.900,212.496 17.181,212.288 17.383 C 212.080 17.585,211.761 18.050,211.580 18.417 C 211.398 18.783,211.175 19.137,211.083 19.202 C 210.986 19.272,210.917 20.293,210.917 21.667 C 210.917 23.040,210.986 24.061,211.083 24.131 C 211.175 24.196,211.393 24.531,211.568 24.875 C 211.743 25.219,211.949 25.500,212.026 25.500 C 212.103 25.500,212.167 25.582,212.167 25.683 C 212.167 25.922,213.245 27.000,213.483 27.000 C 213.584 27.000,213.667 27.074,213.667 27.163 C 213.667 27.253,213.854 27.374,214.083 27.432 C 214.313 27.489,214.500 27.603,214.500 27.685 C 214.500 27.766,214.644 27.833,214.819 27.833 C 214.995 27.833,215.170 27.927,215.208 28.042 C 215.260 28.195,215.904 28.250,217.667 28.250 C 219.430 28.250,220.074 28.195,220.125 28.042 C 220.163 27.927,220.301 27.833,220.431 27.833 C 220.560 27.833,220.667 27.768,220.667 27.688 C 220.667 27.607,220.892 27.497,221.168 27.441 C 221.731 27.329,223.667 25.509,223.667 25.092 C 223.667 24.950,223.741 24.833,223.831 24.833 C 223.922 24.833,224.044 24.533,224.103 24.167 C 224.161 23.800,224.275 23.500,224.355 23.500 C 224.435 23.500,224.500 23.200,224.500 22.833 C 224.500 22.467,224.575 22.167,224.667 22.167 C 224.758 22.167,224.833 21.867,224.833 21.500 C 224.833 21.133,224.758 20.833,224.667 20.833 C 224.575 20.833,224.500 20.533,224.500 20.167 C 224.500 19.800,224.431 19.500,224.347 19.500 C 224.262 19.500,224.144 19.275,224.083 19.000 C 224.023 18.725,223.913 18.500,223.839 18.500 C 223.764 18.500,223.655 18.242,223.596 17.926 C 223.528 17.562,223.368 17.314,223.161 17.248 C 222.981 17.191,222.833 17.085,222.833 17.013 C 222.833 16.777,222.022 16.000,221.776 16.000 C 221.644 16.000,221.492 15.887,221.440 15.750 C 221.387 15.612,221.198 15.500,221.019 15.500 C 220.841 15.500,220.669 15.424,220.638 15.330 C 220.607 15.237,220.188 15.114,219.707 15.057 C 219.227 15.000,218.833 14.889,218.833 14.810 C 218.833 14.731,218.308 14.667,217.667 14.667 C 217.025 14.667,216.500 14.732,216.500 14.812 M0.000 47.141 C 0.000 64.098,0.046 78.091,0.101 78.236 C 0.223 78.554,25.667 78.650,25.667 78.333 C 25.667 78.233,26.333 78.167,27.333 78.167 C 28.250 78.167,29.000 78.100,29.000 78.018 C 29.000 77.936,29.675 77.815,30.500 77.750 C 31.325 77.685,32.000 77.572,32.000 77.499 C 32.000 77.426,32.450 77.314,33.000 77.250 C 33.550 77.186,34.000 77.066,34.000 76.984 C 34.000 76.901,34.188 76.833,34.417 76.833 C 34.646 76.833,34.833 76.765,34.833 76.682 C 34.833 76.599,35.208 76.480,35.667 76.417 C 36.125 76.354,36.500 76.235,36.500 76.153 C 36.500 76.071,36.800 75.956,37.167 75.897 C 37.533 75.839,37.833 75.725,37.833 75.645 C 37.833 75.565,37.946 75.500,38.083 75.500 C 38.221 75.500,38.333 75.433,38.333 75.352 C 38.333 75.270,38.596 75.155,38.917 75.094 C 39.237 75.034,39.500 74.913,39.500 74.826 C 39.500 74.738,39.612 74.667,39.750 74.667 C 39.887 74.667,40.000 74.592,40.000 74.500 C 40.000 74.408,40.107 74.333,40.238 74.333 C 40.369 74.333,40.579 74.231,40.704 74.105 C 40.830 73.980,41.116 73.819,41.341 73.748 C 41.566 73.677,41.862 73.490,42.000 73.333 C 42.137 73.176,42.419 72.994,42.625 72.929 C 42.831 72.864,43.000 72.749,43.000 72.674 C 43.000 72.598,43.183 72.490,43.406 72.434 C 43.629 72.378,43.857 72.187,43.914 72.008 C 43.971 71.830,44.171 71.635,44.359 71.575 C 44.752 71.450,48.333 67.921,48.333 67.658 C 48.333 67.562,48.521 67.310,48.750 67.098 C 48.979 66.886,49.167 66.654,49.167 66.583 C 49.167 66.513,49.345 66.289,49.564 66.087 C 49.782 65.884,50.012 65.557,50.075 65.359 C 50.138 65.162,50.259 65.000,50.345 65.000 C 50.430 65.000,50.500 64.887,50.500 64.750 C 50.500 64.612,50.567 64.500,50.648 64.500 C 50.730 64.500,50.844 64.245,50.903 63.933 C 50.961 63.621,51.120 63.323,51.255 63.271 C 51.390 63.220,51.500 63.025,51.500 62.839 C 51.500 62.652,51.575 62.500,51.667 62.500 C 51.758 62.500,51.833 62.387,51.833 62.250 C 51.833 62.112,51.899 62.000,51.979 62.000 C 52.059 62.000,52.172 61.700,52.231 61.333 C 52.289 60.967,52.411 60.667,52.502 60.667 C 52.593 60.667,52.667 60.554,52.667 60.417 C 52.667 60.279,52.735 60.167,52.818 60.167 C 52.901 60.167,53.020 59.792,53.083 59.333 C 53.146 58.875,53.259 58.500,53.333 58.500 C 53.408 58.500,53.520 58.125,53.583 57.667 C 53.646 57.208,53.766 56.833,53.849 56.833 C 53.932 56.833,54.000 56.615,54.000 56.347 C 54.000 56.080,54.074 55.836,54.165 55.806 C 54.256 55.775,54.380 55.169,54.440 54.458 C 54.500 53.748,54.613 53.167,54.691 53.167 C 54.769 53.167,54.833 52.759,54.833 52.260 C 54.833 51.761,54.908 51.307,55.000 51.250 C 55.227 51.110,55.227 43.500,55.000 43.500 C 54.906 43.500,54.833 43.028,54.833 42.417 C 54.833 41.821,54.766 41.333,54.684 41.333 C 54.602 41.333,54.482 40.733,54.417 40.000 C 54.352 39.267,54.231 38.667,54.149 38.667 C 54.067 38.667,54.000 38.479,54.000 38.250 C 54.000 38.021,53.935 37.833,53.857 37.833 C 53.778 37.833,53.667 37.445,53.611 36.971 C 53.555 36.497,53.443 36.065,53.363 36.013 C 53.283 35.960,53.165 35.692,53.100 35.417 C 52.944 34.759,52.612 34.000,52.481 34.000 C 52.423 34.000,52.328 33.700,52.269 33.333 C 52.211 32.967,52.089 32.667,51.998 32.667 C 51.907 32.667,51.833 32.554,51.833 32.417 C 51.833 32.279,51.764 32.167,51.680 32.167 C 51.596 32.167,51.478 31.947,51.419 31.678 C 51.360 31.410,51.204 31.100,51.073 30.991 C 50.941 30.882,50.833 30.689,50.833 30.563 C 50.833 30.437,50.758 30.333,50.667 30.333 C 50.575 30.333,50.500 30.191,50.500 30.018 C 50.500 29.844,50.387 29.659,50.250 29.606 C 50.112 29.554,50.000 29.396,50.000 29.255 C 50.000 29.115,49.930 29.000,49.845 29.000 C 49.759 29.000,49.638 28.838,49.575 28.639 C 49.512 28.441,49.282 28.100,49.063 27.882 C 48.845 27.663,48.667 27.381,48.667 27.254 C 48.667 27.126,48.517 26.975,48.333 26.917 C 48.150 26.858,48.000 26.747,48.000 26.668 C 48.000 26.590,47.766 26.304,47.480 26.033 C 46.932 25.513,46.903 25.484,46.152 24.728 C 45.891 24.465,45.581 24.160,45.464 24.050 C 45.346 23.939,45.160 23.752,45.050 23.633 C 44.747 23.307,44.360 23.000,44.249 23.000 C 44.195 23.000,43.986 22.823,43.784 22.606 C 43.582 22.390,43.252 22.161,43.050 22.098 C 42.849 22.035,42.640 21.845,42.586 21.676 C 42.527 21.489,42.262 21.326,41.911 21.260 C 41.593 21.200,41.333 21.081,41.333 20.996 C 41.333 20.910,41.146 20.793,40.917 20.735 C 40.688 20.678,40.500 20.564,40.500 20.482 C 40.500 20.400,40.387 20.333,40.250 20.333 C 40.112 20.333,40.000 20.264,40.000 20.180 C 40.000 20.096,39.775 19.977,39.500 19.917 C 39.225 19.856,39.000 19.738,39.000 19.653 C 39.000 19.569,38.850 19.500,38.667 19.500 C 38.483 19.500,38.333 19.431,38.333 19.347 C 38.333 19.262,38.108 19.144,37.833 19.083 C 37.558 19.023,37.333 18.914,37.333 18.841 C 37.333 18.769,37.033 18.661,36.667 18.603 C 36.300 18.544,36.000 18.422,36.000 18.331 C 36.000 18.241,35.813 18.167,35.583 18.167 C 35.354 18.167,35.167 18.097,35.167 18.012 C 35.167 17.927,34.754 17.806,34.250 17.743 C 33.746 17.680,33.333 17.568,33.333 17.495 C 33.333 17.422,32.771 17.309,32.083 17.245 C 31.396 17.180,30.833 17.061,30.833 16.980 C 30.833 16.900,30.540 16.833,30.181 16.833 C 29.806 16.833,29.498 16.744,29.458 16.625 C 29.404 16.461,26.264 16.405,14.694 16.363 L 0.000 16.309 0.000 47.141 M163.833 21.000 C 163.833 21.092,163.748 21.167,163.643 21.167 C 163.087 21.167,162.458 22.208,162.373 23.270 C 162.326 23.855,162.229 24.333,162.156 24.333 C 162.084 24.333,161.972 25.008,161.908 25.833 C 161.843 26.658,161.725 27.333,161.645 27.333 C 161.565 27.333,161.500 27.633,161.500 28.000 C 161.500 28.367,161.431 28.667,161.346 28.667 C 161.261 28.667,161.139 29.342,161.074 30.167 C 161.010 30.992,160.892 31.667,160.812 31.667 C 160.732 31.667,160.667 31.967,160.667 32.333 C 160.667 32.700,160.596 33.000,160.510 33.000 C 160.423 33.000,160.329 33.319,160.301 33.708 C 160.254 34.358,160.209 34.421,159.750 34.471 C 159.475 34.501,159.179 34.595,159.092 34.679 C 159.005 34.764,158.611 34.833,158.217 34.833 C 157.823 34.833,157.500 34.900,157.500 34.982 C 157.500 35.064,156.750 35.184,155.833 35.250 C 154.917 35.316,154.167 35.436,154.167 35.518 C 154.167 35.600,153.935 35.667,153.653 35.667 L 153.139 35.667 153.194 38.458 L 153.250 41.250 153.768 41.792 L 154.286 42.333 156.962 42.333 L 159.639 42.333 159.694 56.173 C 159.735 66.218,159.802 70.045,159.938 70.131 C 160.042 70.197,160.180 70.644,160.245 71.125 C 160.311 71.606,160.433 72.000,160.516 72.000 C 160.599 72.000,160.667 72.188,160.667 72.417 C 160.667 72.646,160.736 72.833,160.820 72.833 C 160.904 72.833,161.023 73.058,161.083 73.333 C 161.144 73.608,161.262 73.833,161.347 73.833 C 161.431 73.833,161.500 73.914,161.500 74.012 C 161.500 74.110,161.594 74.295,161.708 74.423 C 162.186 74.955,162.333 75.160,162.333 75.290 C 162.333 75.446,163.416 76.500,163.577 76.500 C 163.634 76.500,163.869 76.688,164.098 76.917 C 164.328 77.146,164.624 77.333,164.758 77.333 C 164.891 77.333,165.000 77.402,165.000 77.487 C 165.000 77.571,165.225 77.690,165.500 77.750 C 165.775 77.810,166.000 77.929,166.000 78.013 C 166.000 78.098,166.181 78.167,166.403 78.167 C 166.624 78.167,166.831 78.241,166.861 78.332 C 166.892 78.422,167.385 78.546,167.958 78.605 C 168.531 78.665,169.000 78.778,169.000 78.857 C 169.000 78.936,170.275 79.000,171.833 79.000 C 173.392 79.000,174.667 78.934,174.667 78.853 C 174.667 78.772,175.229 78.653,175.917 78.589 C 176.604 78.524,177.167 78.403,177.167 78.319 C 177.167 78.235,177.392 78.167,177.667 78.167 C 177.942 78.167,178.167 78.093,178.167 78.002 C 178.167 77.911,178.467 77.789,178.833 77.731 C 179.200 77.672,179.500 77.562,179.500 77.486 C 179.500 77.410,179.762 77.299,180.083 77.239 C 180.404 77.179,180.667 77.063,180.667 76.981 C 180.667 76.900,180.779 76.833,180.917 76.833 C 181.054 76.833,181.167 76.766,181.167 76.685 C 181.167 76.603,181.354 76.489,181.583 76.432 C 181.813 76.374,182.000 76.253,182.000 76.163 C 182.000 76.074,182.100 76.000,182.222 76.000 C 182.548 76.000,183.333 75.058,183.333 74.668 C 183.333 74.484,183.258 74.333,183.167 74.333 C 183.075 74.333,183.000 74.218,183.000 74.078 C 183.000 73.938,182.887 73.780,182.750 73.727 C 182.612 73.674,182.500 73.489,182.500 73.316 C 182.500 73.142,182.425 73.000,182.333 73.000 C 182.242 73.000,182.167 72.885,182.167 72.745 C 182.167 72.604,182.054 72.446,181.917 72.394 C 181.779 72.341,181.667 72.164,181.667 72.000 C 181.667 71.836,181.554 71.659,181.417 71.606 C 181.279 71.554,181.167 71.358,181.167 71.172 C 181.167 70.986,181.092 70.833,181.000 70.833 C 180.908 70.833,180.833 70.718,180.833 70.578 C 180.833 70.438,180.721 70.280,180.583 70.227 C 180.446 70.174,180.333 70.023,180.333 69.891 C 180.333 69.045,177.811 68.394,177.360 69.123 C 177.298 69.224,177.041 69.358,176.790 69.422 C 176.539 69.485,176.333 69.603,176.333 69.685 C 176.333 69.766,176.221 69.833,176.083 69.833 C 175.946 69.833,175.833 69.908,175.833 70.000 C 175.833 70.098,175.250 70.167,174.417 70.167 C 173.583 70.167,173.000 70.098,173.000 70.000 C 173.000 69.908,172.887 69.833,172.750 69.833 C 172.612 69.833,172.500 69.766,172.500 69.685 C 172.500 69.603,172.314 69.489,172.086 69.432 C 171.830 69.368,171.632 69.170,171.568 68.914 C 171.511 68.686,171.397 68.500,171.315 68.500 C 171.234 68.500,171.167 68.394,171.167 68.264 C 171.167 68.134,171.073 67.997,170.958 67.958 C 170.795 67.904,170.740 65.152,170.703 55.111 L 170.657 42.333 180.578 42.333 L 190.500 42.333 190.500 60.179 C 190.500 75.422,190.535 78.059,190.738 78.262 C 191.091 78.615,201.076 78.615,201.429 78.262 C 201.787 77.904,201.787 35.096,201.429 34.738 C 201.226 34.535,198.933 34.500,185.929 34.500 L 170.667 34.500 170.667 27.667 L 170.667 20.833 167.250 20.833 C 165.083 20.833,163.833 20.894,163.833 21.000 M24.667 25.808 C 24.667 25.885,25.547 25.996,26.624 26.054 C 27.715 26.112,28.606 26.234,28.638 26.329 C 28.669 26.423,28.951 26.500,29.264 26.500 C 29.577 26.500,29.833 26.570,29.833 26.656 C 29.833 26.743,30.171 26.864,30.583 26.925 C 30.996 26.987,31.333 27.096,31.333 27.167 C 31.333 27.238,31.596 27.345,31.917 27.406 C 32.237 27.466,32.500 27.587,32.500 27.674 C 32.500 27.762,32.612 27.833,32.750 27.833 C 32.887 27.833,33.000 27.902,33.000 27.987 C 33.000 28.071,33.225 28.190,33.500 28.250 C 33.775 28.310,34.000 28.429,34.000 28.513 C 34.000 28.598,34.116 28.667,34.258 28.667 C 34.400 28.667,34.681 28.844,34.883 29.060 C 35.085 29.277,35.415 29.505,35.616 29.569 C 35.818 29.632,36.029 29.830,36.086 30.009 C 36.143 30.187,36.253 30.333,36.332 30.333 C 36.517 30.333,37.500 31.316,37.500 31.502 C 37.500 31.580,37.646 31.691,37.825 31.747 C 38.003 31.804,38.195 31.993,38.250 32.167 C 38.305 32.341,38.497 32.529,38.675 32.586 C 38.854 32.643,39.000 32.791,39.000 32.916 C 39.000 33.041,39.103 33.245,39.228 33.371 C 39.353 33.496,39.514 33.783,39.585 34.008 C 39.656 34.233,39.853 34.538,40.024 34.686 C 40.194 34.834,40.380 35.190,40.437 35.478 C 40.495 35.765,40.599 36.000,40.669 36.000 C 40.740 36.000,40.847 36.206,40.908 36.458 C 41.064 37.103,41.393 37.833,41.529 37.833 C 41.591 37.833,41.694 38.246,41.757 38.750 C 41.820 39.254,41.938 39.667,42.019 39.667 C 42.100 39.667,42.167 39.923,42.167 40.236 C 42.167 40.549,42.241 40.831,42.332 40.861 C 42.424 40.892,42.548 41.723,42.608 42.708 C 42.668 43.694,42.781 44.500,42.859 44.500 C 42.936 44.500,43.000 45.775,43.000 47.333 C 43.000 48.892,42.936 50.167,42.857 50.167 C 42.778 50.167,42.661 51.010,42.597 52.042 C 42.532 53.073,42.409 53.942,42.323 53.972 C 42.237 54.003,42.167 54.247,42.167 54.514 C 42.167 54.781,42.099 55.000,42.016 55.000 C 41.933 55.000,41.813 55.375,41.750 55.833 C 41.687 56.292,41.567 56.667,41.484 56.667 C 41.401 56.667,41.333 56.854,41.333 57.083 C 41.333 57.313,41.264 57.500,41.180 57.500 C 41.096 57.500,40.977 57.725,40.917 58.000 C 40.856 58.275,40.741 58.500,40.661 58.500 C 40.581 58.500,40.466 58.762,40.406 59.083 C 40.345 59.404,40.230 59.667,40.148 59.667 C 40.067 59.667,40.000 59.779,40.000 59.917 C 40.000 60.054,39.925 60.167,39.833 60.167 C 39.742 60.167,39.667 60.274,39.667 60.405 C 39.667 60.536,39.564 60.745,39.439 60.871 C 39.313 60.996,39.158 61.264,39.094 61.466 C 39.030 61.668,38.908 61.833,38.822 61.833 C 38.737 61.833,38.667 61.905,38.667 61.993 C 38.667 62.153,35.892 65.000,35.736 65.000 C 35.657 65.000,35.428 65.175,34.945 65.603 C 34.829 65.706,34.550 65.847,34.326 65.919 C 34.101 65.990,33.800 66.182,33.657 66.346 C 33.514 66.510,33.195 66.695,32.948 66.757 C 32.702 66.819,32.500 66.935,32.500 67.016 C 32.500 67.097,32.200 67.211,31.833 67.269 C 31.467 67.328,31.167 67.441,31.167 67.521 C 31.167 67.601,30.979 67.667,30.750 67.667 C 30.521 67.667,30.333 67.736,30.333 67.821 C 30.333 67.906,29.921 68.028,29.417 68.091 C 28.912 68.154,28.500 68.271,28.500 68.353 C 28.500 68.434,28.125 68.500,27.667 68.500 C 27.208 68.500,26.833 68.575,26.833 68.667 C 26.833 68.775,24.194 68.833,19.250 68.833 L 11.667 68.833 11.667 47.250 L 11.667 25.667 18.167 25.667 C 21.742 25.667,24.667 25.730,24.667 25.808 M320.788 31.069 C 320.643 31.214,320.368 31.333,320.179 31.333 C 319.989 31.333,319.833 31.400,319.833 31.482 C 319.833 31.564,319.651 31.676,319.428 31.732 C 319.205 31.788,318.978 31.965,318.924 32.125 C 318.870 32.286,318.567 32.604,318.251 32.833 C 317.935 33.063,317.674 33.378,317.671 33.533 C 317.669 33.689,317.573 33.877,317.458 33.950 C 317.165 34.138,316.897 34.663,316.750 35.339 C 316.681 35.657,316.555 35.961,316.470 36.016 C 316.384 36.070,316.271 36.539,316.217 37.057 C 316.164 37.576,316.056 38.000,315.977 38.000 C 315.898 38.000,315.833 38.181,315.833 38.403 C 315.833 38.624,315.740 38.837,315.625 38.875 C 315.337 38.971,315.354 51.368,315.642 51.464 C 315.751 51.500,315.833 51.876,315.833 52.333 C 315.833 52.776,315.905 53.164,315.992 53.194 C 316.079 53.225,316.202 54.131,316.266 55.208 C 316.330 56.285,316.440 57.167,316.510 57.167 C 316.581 57.167,316.691 57.729,316.755 58.417 C 316.820 59.104,316.939 59.667,317.020 59.667 C 317.100 59.667,317.167 59.810,317.167 59.986 C 317.167 60.162,317.241 60.331,317.332 60.361 C 317.422 60.392,317.546 60.885,317.605 61.458 C 317.665 62.031,317.773 62.500,317.845 62.500 C 317.917 62.500,318.028 62.913,318.091 63.419 C 318.154 63.924,318.272 64.379,318.353 64.429 C 318.434 64.479,318.500 64.703,318.500 64.927 C 318.500 65.150,318.574 65.333,318.665 65.333 C 318.755 65.333,318.877 65.633,318.936 66.000 C 318.995 66.367,319.108 66.667,319.188 66.667 C 319.268 66.667,319.333 66.817,319.333 67.000 C 319.333 67.183,319.401 67.333,319.484 67.333 C 319.567 67.333,319.687 67.708,319.750 68.167 C 319.813 68.625,319.932 69.000,320.014 69.000 C 320.096 69.000,320.211 69.300,320.269 69.667 C 320.328 70.033,320.441 70.333,320.521 70.333 C 320.601 70.333,320.667 70.446,320.667 70.583 C 320.667 70.721,320.733 70.833,320.815 70.833 C 320.896 70.833,321.012 71.096,321.072 71.417 C 321.133 71.737,321.253 72.000,321.341 72.000 C 321.428 72.000,321.500 72.112,321.500 72.250 C 321.500 72.387,321.572 72.500,321.659 72.500 C 321.747 72.500,321.867 72.762,321.928 73.083 C 321.988 73.404,322.096 73.667,322.167 73.667 C 322.239 73.667,322.348 73.868,322.410 74.115 C 322.472 74.362,322.662 74.685,322.833 74.833 C 323.004 74.982,323.195 75.305,323.257 75.552 C 323.319 75.798,323.428 76.000,323.500 76.000 C 323.572 76.000,323.678 76.188,323.735 76.417 C 323.793 76.646,323.913 76.833,324.003 76.833 C 324.093 76.833,324.167 76.946,324.167 77.083 C 324.167 77.221,324.240 77.333,324.330 77.333 C 324.420 77.333,324.537 77.506,324.590 77.718 C 324.643 77.930,324.870 78.240,325.093 78.408 C 325.317 78.576,325.500 78.783,325.500 78.869 C 325.500 78.954,325.594 79.128,325.708 79.256 C 326.162 79.762,326.333 79.990,326.333 80.089 C 326.333 80.320,327.826 81.667,328.082 81.667 C 328.233 81.667,328.470 81.779,328.607 81.917 C 328.745 82.054,329.002 82.167,329.179 82.167 C 329.355 82.167,329.500 82.242,329.500 82.333 C 329.500 82.425,329.875 82.500,330.333 82.500 C 330.792 82.500,331.167 82.425,331.167 82.333 C 331.167 82.242,331.349 82.167,331.571 82.167 C 331.950 82.167,332.087 82.071,332.632 81.422 C 332.750 81.282,333.030 81.167,333.253 81.167 C 333.548 81.167,333.689 81.052,333.765 80.750 C 333.822 80.521,333.931 80.333,334.005 80.333 C 334.080 80.333,334.166 78.858,334.196 77.055 C 334.236 74.621,334.304 73.760,334.458 73.708 C 334.573 73.670,334.667 73.495,334.667 73.319 C 334.667 73.144,334.734 73.000,334.815 73.000 C 334.897 73.000,335.010 72.814,335.067 72.588 C 335.196 72.076,336.542 70.667,336.902 70.667 C 337.047 70.667,337.167 70.593,337.167 70.502 C 337.167 70.411,337.467 70.289,337.833 70.231 C 338.200 70.172,338.500 70.059,338.500 69.979 C 338.500 69.899,339.100 69.833,339.833 69.833 C 340.567 69.833,341.167 69.899,341.167 69.979 C 341.167 70.059,341.467 70.172,341.833 70.231 C 342.200 70.289,342.500 70.403,342.500 70.484 C 342.500 70.565,342.683 70.676,342.906 70.732 C 343.129 70.788,343.357 70.980,343.414 71.159 C 343.471 71.337,343.663 71.529,343.841 71.586 C 344.020 71.643,344.212 71.871,344.268 72.094 C 344.324 72.317,344.430 72.500,344.505 72.500 C 344.579 72.500,344.689 72.724,344.750 72.998 C 344.810 73.272,344.928 73.539,345.013 73.591 C 345.097 73.644,345.167 73.832,345.167 74.010 C 345.167 74.188,345.235 74.333,345.318 74.333 C 345.401 74.333,345.495 75.771,345.526 77.528 C 345.568 79.894,345.637 80.740,345.792 80.792 C 345.906 80.830,346.000 80.967,346.000 81.097 C 346.000 81.227,346.096 81.333,346.213 81.333 C 346.330 81.333,346.536 81.485,346.670 81.671 C 346.806 81.859,347.191 82.053,347.540 82.109 C 347.885 82.164,348.167 82.275,348.167 82.355 C 348.167 82.435,348.579 82.500,349.083 82.500 C 349.587 82.500,350.000 82.425,350.000 82.333 C 350.000 82.242,350.265 82.167,350.589 82.167 C 350.958 82.167,351.213 82.074,351.273 81.917 C 351.326 81.779,351.469 81.667,351.591 81.667 C 351.835 81.667,353.333 80.256,353.333 80.026 C 353.333 79.948,353.483 79.711,353.667 79.500 C 353.850 79.289,354.000 79.020,354.000 78.902 C 354.000 78.785,354.146 78.643,354.325 78.586 C 354.503 78.529,354.702 78.318,354.765 78.116 C 354.829 77.915,355.010 77.637,355.167 77.500 C 355.324 77.362,355.506 77.081,355.571 76.875 C 355.636 76.669,355.753 76.500,355.831 76.500 C 355.910 76.500,356.020 76.290,356.076 76.032 C 356.133 75.775,356.326 75.459,356.506 75.329 C 356.686 75.199,356.833 74.920,356.833 74.708 C 356.833 74.496,356.944 74.280,357.079 74.229 C 357.214 74.177,357.372 73.879,357.431 73.567 C 357.489 73.255,357.604 73.000,357.685 73.000 C 357.767 73.000,357.833 72.887,357.833 72.750 C 357.833 72.612,357.902 72.500,357.987 72.500 C 358.071 72.500,358.190 72.275,358.250 72.000 C 358.310 71.725,358.429 71.500,358.513 71.500 C 358.598 71.500,358.667 71.350,358.667 71.167 C 358.667 70.983,358.735 70.833,358.819 70.833 C 358.902 70.833,359.021 70.533,359.083 70.167 C 359.145 69.800,359.258 69.500,359.333 69.500 C 359.409 69.500,359.521 69.200,359.583 68.833 C 359.645 68.467,359.764 68.167,359.848 68.167 C 359.932 68.167,360.000 67.979,360.000 67.750 C 360.000 67.521,360.068 67.333,360.152 67.333 C 360.236 67.333,360.355 67.033,360.417 66.667 C 360.479 66.300,360.589 66.000,360.662 66.000 C 360.735 66.000,360.846 65.587,360.909 65.083 C 360.972 64.579,361.094 64.167,361.179 64.167 C 361.264 64.167,361.333 63.979,361.333 63.750 C 361.333 63.521,361.400 63.333,361.481 63.333 C 361.562 63.333,361.680 62.921,361.743 62.417 C 361.806 61.913,361.927 61.500,362.012 61.500 C 362.097 61.500,362.167 61.319,362.167 61.097 C 362.167 60.876,362.241 60.669,362.332 60.639 C 362.423 60.608,362.547 60.002,362.607 59.292 C 362.667 58.581,362.771 58.000,362.838 58.000 C 362.906 58.000,363.014 57.438,363.078 56.750 C 363.142 56.063,363.264 55.500,363.348 55.500 C 363.578 55.500,363.530 54.875,363.292 54.764 C 363.125 54.686,363.125 54.647,363.292 54.569 C 363.406 54.516,363.500 54.185,363.500 53.833 C 363.500 53.482,363.574 53.169,363.664 53.139 C 363.760 53.106,363.875 51.583,363.940 49.458 C 364.002 47.465,364.116 45.833,364.193 45.833 C 364.270 45.833,364.333 45.196,364.333 44.417 C 364.333 43.637,364.270 43.000,364.192 43.000 C 364.114 43.000,364.007 41.971,363.954 40.712 C 363.895 39.313,363.789 38.402,363.679 38.365 C 363.581 38.332,363.500 38.012,363.500 37.653 C 363.500 37.294,363.432 37.000,363.349 37.000 C 363.266 37.000,363.146 36.625,363.083 36.167 C 363.020 35.708,362.907 35.333,362.831 35.333 C 362.755 35.333,362.644 35.108,362.583 34.833 C 362.523 34.558,362.404 34.333,362.320 34.333 C 362.236 34.333,362.167 34.255,362.167 34.160 C 362.167 33.996,362.036 33.808,361.542 33.256 C 361.427 33.128,361.333 32.945,361.333 32.848 C 361.333 32.752,361.149 32.627,360.923 32.570 C 360.697 32.513,360.467 32.324,360.411 32.150 C 360.356 31.976,360.164 31.833,359.984 31.833 C 359.804 31.833,359.613 31.721,359.560 31.583 C 359.508 31.446,359.291 31.333,359.079 31.333 C 358.868 31.333,358.664 31.241,358.626 31.128 C 358.576 30.978,357.931 30.922,356.250 30.922 C 354.569 30.922,353.924 30.978,353.874 31.128 C 353.836 31.241,353.556 31.333,353.250 31.333 C 352.944 31.333,352.668 31.414,352.635 31.512 C 352.602 31.611,352.110 31.734,351.542 31.785 C 350.759 31.856,350.486 31.949,350.416 32.169 C 350.358 32.352,350.080 32.498,349.662 32.565 C 349.298 32.623,349.000 32.741,349.000 32.828 C 349.000 32.914,348.738 33.034,348.417 33.094 C 348.096 33.155,347.833 33.270,347.833 33.352 C 347.833 33.433,347.721 33.500,347.583 33.500 C 347.446 33.500,347.333 33.568,347.333 33.651 C 347.333 33.734,346.958 33.854,346.500 33.917 C 346.042 33.980,345.667 34.095,345.667 34.172 C 345.667 34.250,345.329 34.364,344.917 34.425 C 344.504 34.487,344.167 34.604,344.167 34.686 C 344.167 34.767,343.873 34.833,343.514 34.833 C 343.155 34.833,342.834 34.915,342.801 35.015 C 342.717 35.264,336.949 35.262,336.865 35.012 C 336.832 34.914,336.518 34.833,336.167 34.833 C 335.815 34.833,335.500 34.751,335.467 34.650 C 335.433 34.550,335.052 34.427,334.620 34.379 C 334.187 34.330,333.833 34.226,333.833 34.147 C 333.833 34.068,333.533 33.956,333.167 33.897 C 332.800 33.839,332.500 33.725,332.500 33.645 C 332.500 33.565,332.387 33.500,332.250 33.500 C 332.112 33.500,332.000 33.428,332.000 33.341 C 332.000 33.253,331.737 33.133,331.417 33.072 C 331.096 33.012,330.833 32.903,330.833 32.829 C 330.833 32.756,330.533 32.645,330.167 32.583 C 329.800 32.521,329.500 32.402,329.500 32.319 C 329.500 32.235,329.387 32.167,329.250 32.167 C 329.112 32.167,329.000 32.099,329.000 32.016 C 329.000 31.933,328.625 31.813,328.167 31.750 C 327.708 31.687,327.333 31.567,327.333 31.484 C 327.333 31.401,327.198 31.333,327.033 31.333 C 326.868 31.333,326.640 31.240,326.525 31.125 C 326.179 30.778,321.128 30.729,320.788 31.069 M79.333 33.642 C 79.333 33.720,78.681 33.834,77.883 33.896 C 77.085 33.957,76.391 34.071,76.341 34.150 C 76.291 34.229,75.856 34.347,75.375 34.412 C 74.894 34.478,74.500 34.599,74.500 34.682 C 74.500 34.765,74.313 34.833,74.083 34.833 C 73.854 34.833,73.667 34.907,73.667 34.998 C 73.667 35.089,73.367 35.211,73.000 35.269 C 72.633 35.328,72.333 35.441,72.333 35.521 C 72.333 35.601,72.221 35.667,72.083 35.667 C 71.946 35.667,71.833 35.740,71.833 35.830 C 71.833 35.920,71.646 36.041,71.417 36.098 C 71.188 36.156,71.000 36.266,71.000 36.344 C 71.000 36.421,70.740 36.534,70.422 36.593 C 70.072 36.659,69.806 36.822,69.747 37.009 C 69.694 37.178,69.485 37.368,69.283 37.431 C 69.082 37.495,68.687 37.789,68.406 38.085 C 68.125 38.382,67.735 38.675,67.540 38.737 C 67.344 38.800,67.139 38.993,67.083 39.167 C 67.028 39.341,66.841 39.528,66.667 39.583 C 66.493 39.639,66.299 39.849,66.235 40.050 C 66.172 40.252,65.878 40.646,65.581 40.927 C 65.285 41.208,64.990 41.602,64.927 41.802 C 64.863 42.003,64.741 42.167,64.655 42.167 C 64.570 42.167,64.500 42.279,64.500 42.417 C 64.500 42.554,64.426 42.667,64.337 42.667 C 64.247 42.667,64.126 42.854,64.068 43.083 C 64.011 43.313,63.905 43.500,63.833 43.500 C 63.762 43.500,63.656 43.688,63.598 43.917 C 63.541 44.146,63.420 44.333,63.330 44.333 C 63.240 44.333,63.167 44.446,63.167 44.583 C 63.167 44.721,63.101 44.833,63.021 44.833 C 62.941 44.833,62.828 45.133,62.769 45.500 C 62.711 45.867,62.596 46.167,62.514 46.167 C 62.432 46.167,62.313 46.542,62.250 47.000 C 62.187 47.458,62.067 47.833,61.984 47.833 C 61.901 47.833,61.833 47.983,61.833 48.167 C 61.833 48.350,61.765 48.500,61.681 48.500 C 61.597 48.500,61.476 49.063,61.411 49.750 C 61.347 50.438,61.228 51.000,61.147 51.000 C 61.066 51.000,61.000 51.487,61.000 52.083 C 61.000 52.694,60.927 53.167,60.833 53.167 C 60.730 53.167,60.667 54.028,60.667 55.417 C 60.667 56.806,60.730 57.667,60.833 57.667 C 60.931 57.667,61.000 58.222,61.000 59.000 C 61.000 59.733,61.064 60.333,61.143 60.333 C 61.221 60.333,61.337 60.952,61.399 61.708 C 61.462 62.465,61.585 63.108,61.673 63.139 C 61.761 63.169,61.833 63.338,61.833 63.514 C 61.833 63.690,61.899 63.833,61.978 63.833 C 62.058 63.833,62.162 64.180,62.210 64.604 C 62.258 65.028,62.369 65.422,62.458 65.479 C 62.546 65.536,62.670 65.865,62.734 66.208 C 62.797 66.552,62.920 66.833,63.008 66.833 C 63.095 66.833,63.167 67.021,63.167 67.250 C 63.167 67.479,63.242 67.667,63.333 67.667 C 63.425 67.667,63.500 67.774,63.500 67.905 C 63.500 68.036,63.603 68.245,63.728 68.371 C 63.853 68.496,64.014 68.783,64.085 69.008 C 64.156 69.233,64.343 69.529,64.500 69.667 C 64.657 69.804,64.839 70.085,64.904 70.292 C 64.969 70.498,65.092 70.667,65.178 70.667 C 65.263 70.667,65.333 70.747,65.333 70.846 C 65.333 70.945,65.558 71.251,65.833 71.526 C 66.108 71.801,66.333 72.093,66.333 72.176 C 66.333 72.389,68.109 74.167,68.321 74.167 C 68.418 74.167,68.712 74.392,68.975 74.667 C 69.238 74.942,69.522 75.167,69.606 75.167 C 69.691 75.167,69.866 75.314,69.996 75.494 C 70.125 75.674,70.442 75.867,70.699 75.924 C 70.956 75.980,71.167 76.094,71.167 76.177 C 71.167 76.259,71.354 76.374,71.583 76.432 C 71.813 76.489,72.000 76.603,72.000 76.685 C 72.000 76.766,72.150 76.833,72.333 76.833 C 72.517 76.833,72.667 76.902,72.667 76.985 C 72.667 77.069,72.967 77.188,73.333 77.250 C 73.700 77.312,74.000 77.426,74.000 77.504 C 74.000 77.582,74.337 77.697,74.750 77.759 C 75.162 77.821,75.500 77.938,75.500 78.019 C 75.500 78.100,75.756 78.167,76.069 78.167 C 76.383 78.167,76.665 78.244,76.696 78.339 C 76.728 78.433,77.409 78.557,78.210 78.613 C 79.011 78.670,79.667 78.780,79.667 78.858 C 79.667 78.936,81.054 79.000,82.750 79.000 C 84.446 79.000,85.833 78.936,85.833 78.858 C 85.833 78.780,86.602 78.667,87.542 78.605 C 88.481 78.544,89.275 78.420,89.306 78.330 C 89.336 78.240,89.580 78.167,89.847 78.167 C 90.115 78.167,90.333 78.101,90.333 78.022 C 90.333 77.942,90.783 77.825,91.333 77.763 C 91.883 77.701,92.333 77.580,92.333 77.494 C 92.333 77.408,92.633 77.289,93.000 77.231 C 93.367 77.172,93.667 77.059,93.667 76.979 C 93.667 76.899,93.779 76.833,93.917 76.833 C 94.054 76.833,94.167 76.764,94.167 76.680 C 94.167 76.596,94.392 76.477,94.667 76.417 C 94.942 76.356,95.167 76.246,95.167 76.172 C 95.167 76.098,95.429 75.988,95.750 75.928 C 96.071 75.867,96.333 75.747,96.333 75.659 C 96.333 75.572,96.446 75.500,96.583 75.500 C 96.721 75.500,96.833 75.426,96.833 75.337 C 96.833 75.247,97.018 75.127,97.244 75.070 C 97.470 75.013,97.699 74.828,97.753 74.659 C 97.806 74.489,97.997 74.304,98.175 74.247 C 98.354 74.191,98.500 74.074,98.500 73.989 C 98.500 73.903,98.596 73.833,98.712 73.833 C 98.829 73.833,99.237 73.515,99.618 73.125 C 100.000 72.735,100.429 72.320,100.573 72.202 C 100.901 71.931,100.905 71.595,100.583 71.274 C 100.446 71.136,100.333 70.971,100.333 70.906 C 100.333 70.841,100.146 70.614,99.917 70.402 C 99.688 70.190,99.500 69.911,99.500 69.783 C 99.500 69.655,99.275 69.377,99.000 69.167 C 98.725 68.956,98.500 68.650,98.500 68.486 C 98.500 68.323,98.350 68.142,98.167 68.083 C 97.983 68.025,97.833 67.919,97.833 67.846 C 97.833 66.977,94.338 66.183,93.867 66.946 C 93.801 67.053,93.541 67.192,93.290 67.255 C 93.039 67.318,92.833 67.436,92.833 67.518 C 92.833 67.600,92.721 67.667,92.583 67.667 C 92.446 67.667,92.333 67.740,92.333 67.830 C 92.333 67.920,92.146 68.041,91.917 68.098 C 91.688 68.156,91.500 68.270,91.500 68.351 C 91.500 68.433,91.350 68.500,91.167 68.500 C 90.983 68.500,90.833 68.569,90.833 68.653 C 90.833 68.738,90.608 68.856,90.333 68.917 C 90.058 68.977,89.833 69.088,89.833 69.164 C 89.833 69.240,89.458 69.354,89.000 69.417 C 88.542 69.480,88.167 69.599,88.167 69.682 C 88.167 69.765,87.985 69.833,87.764 69.833 C 87.542 69.833,87.330 69.927,87.292 70.042 C 87.239 70.200,86.346 70.250,83.583 70.250 C 80.820 70.250,79.928 70.200,79.875 70.042 C 79.837 69.927,79.624 69.833,79.403 69.833 C 79.181 69.833,79.000 69.768,79.000 69.688 C 79.000 69.608,78.708 69.496,78.352 69.439 C 77.995 69.382,77.660 69.222,77.607 69.084 C 77.554 68.946,77.363 68.833,77.183 68.833 C 77.002 68.833,76.808 68.684,76.750 68.500 C 76.692 68.317,76.544 68.167,76.421 68.167 C 76.120 68.167,74.732 66.803,74.596 66.374 C 74.536 66.185,74.378 65.989,74.244 65.937 C 74.110 65.886,74.000 65.729,74.000 65.589 C 74.000 65.448,73.925 65.333,73.833 65.333 C 73.742 65.333,73.667 65.183,73.667 65.000 C 73.667 64.817,73.598 64.667,73.513 64.667 C 73.429 64.667,73.310 64.442,73.250 64.167 C 73.190 63.892,73.078 63.667,73.002 63.667 C 72.927 63.667,72.813 63.292,72.750 62.833 C 72.687 62.375,72.567 62.000,72.484 62.000 C 72.401 62.000,72.333 61.781,72.333 61.514 C 72.333 61.247,72.261 61.003,72.172 60.972 C 72.084 60.942,71.960 60.185,71.898 59.292 L 71.784 57.667 85.884 57.667 L 99.985 57.667 100.409 57.242 C 100.642 57.009,100.833 56.715,100.833 56.590 C 100.833 56.464,100.921 56.332,101.029 56.296 C 101.269 56.216,101.272 49.504,101.032 49.349 C 100.947 49.295,100.824 48.744,100.759 48.125 C 100.694 47.506,100.571 47.000,100.487 47.000 C 100.402 47.000,100.333 46.737,100.333 46.417 C 100.333 46.096,100.259 45.833,100.169 45.833 C 100.078 45.833,99.956 45.533,99.897 45.167 C 99.839 44.800,99.726 44.500,99.647 44.500 C 99.568 44.500,99.456 44.202,99.398 43.838 C 99.330 43.414,99.186 43.142,98.997 43.082 C 98.823 43.027,98.657 42.751,98.593 42.411 C 98.534 42.093,98.413 41.833,98.326 41.833 C 98.238 41.833,98.167 41.748,98.167 41.644 C 98.167 41.540,97.979 41.281,97.750 41.069 C 97.521 40.856,97.333 40.592,97.333 40.482 C 97.333 40.372,97.043 40.012,96.689 39.683 C 96.334 39.353,95.992 38.915,95.928 38.708 C 95.863 38.502,95.703 38.333,95.572 38.333 C 95.441 38.333,95.033 38.033,94.667 37.667 C 94.300 37.300,93.925 37.000,93.833 37.000 C 93.742 37.000,93.667 36.930,93.667 36.845 C 93.667 36.759,93.501 36.637,93.299 36.573 C 93.097 36.508,92.830 36.353,92.704 36.228 C 92.579 36.103,92.369 36.000,92.238 36.000 C 92.107 36.000,92.000 35.925,92.000 35.833 C 92.000 35.742,91.888 35.667,91.750 35.667 C 91.612 35.667,91.500 35.598,91.500 35.515 C 91.500 35.431,91.200 35.312,90.833 35.250 C 90.467 35.188,90.167 35.069,90.167 34.985 C 90.167 34.902,90.017 34.833,89.833 34.833 C 89.650 34.833,89.500 34.767,89.500 34.686 C 89.500 34.605,89.087 34.487,88.583 34.424 C 88.079 34.361,87.667 34.245,87.667 34.167 C 87.667 34.089,86.992 33.972,86.167 33.908 C 85.342 33.843,84.667 33.725,84.667 33.645 C 84.667 33.565,83.467 33.500,82.000 33.500 C 80.533 33.500,79.333 33.564,79.333 33.642 M130.000 33.642 C 130.000 33.720,129.423 33.833,128.718 33.893 C 128.013 33.952,127.394 34.069,127.343 34.151 C 127.292 34.233,126.894 34.354,126.458 34.419 C 126.023 34.484,125.667 34.604,125.667 34.686 C 125.667 34.767,125.554 34.833,125.417 34.833 C 125.279 34.833,125.167 34.900,125.167 34.981 C 125.167 35.063,124.904 35.179,124.583 35.239 C 124.263 35.299,124.000 35.420,124.000 35.508 C 124.000 35.595,123.888 35.667,123.750 35.667 C 123.612 35.667,123.500 35.742,123.500 35.833 C 123.500 35.925,123.393 36.000,123.262 36.000 C 123.131 36.000,122.921 36.103,122.796 36.228 C 122.670 36.353,122.406 36.507,122.209 36.570 C 122.012 36.632,121.804 36.830,121.747 37.009 C 121.691 37.187,121.522 37.333,121.373 37.333 C 121.225 37.333,120.823 37.633,120.481 38.000 C 120.139 38.367,119.784 38.667,119.692 38.667 C 119.599 38.667,119.406 38.785,119.262 38.929 C 119.024 39.167,119.000 39.152,119.000 38.762 C 119.000 38.526,118.925 38.333,118.833 38.333 C 118.742 38.333,118.667 38.108,118.667 37.833 C 118.667 37.558,118.602 37.333,118.523 37.333 C 118.444 37.333,118.336 36.903,118.281 36.378 C 118.227 35.852,118.103 35.395,118.005 35.363 C 117.763 35.282,117.378 34.885,117.293 34.628 C 117.239 34.466,116.216 34.405,112.945 34.367 L 108.667 34.317 108.667 56.171 C 108.667 74.888,108.701 78.058,108.905 78.262 C 109.101 78.458,110.067 78.500,114.405 78.500 L 119.667 78.500 119.667 62.576 L 119.667 46.652 120.076 46.242 C 120.301 46.017,120.536 45.833,120.599 45.833 C 120.662 45.833,120.929 45.608,121.192 45.333 C 121.455 45.058,121.781 44.833,121.918 44.833 C 122.055 44.833,122.167 44.760,122.167 44.670 C 122.167 44.580,122.351 44.460,122.577 44.403 C 122.803 44.347,123.031 44.166,123.083 44.001 C 123.140 43.823,123.412 43.658,123.756 43.593 C 124.073 43.534,124.333 43.419,124.333 43.339 C 124.333 43.259,124.558 43.144,124.833 43.083 C 125.108 43.023,125.333 42.904,125.333 42.820 C 125.333 42.736,125.515 42.667,125.736 42.667 C 125.958 42.667,126.170 42.573,126.208 42.458 C 126.260 42.302,127.004 42.250,129.167 42.250 C 131.330 42.250,132.073 42.302,132.125 42.458 C 132.163 42.573,132.301 42.667,132.431 42.667 C 132.560 42.667,132.667 42.742,132.667 42.833 C 132.667 42.925,132.774 43.000,132.905 43.000 C 133.036 43.000,133.245 43.103,133.371 43.228 C 133.496 43.353,133.760 43.507,133.958 43.570 C 134.155 43.632,134.363 43.830,134.419 44.009 C 134.476 44.187,134.592 44.333,134.678 44.333 C 134.763 44.333,134.833 44.438,134.833 44.566 C 134.833 44.693,134.946 44.841,135.083 44.894 C 135.221 44.946,135.333 45.136,135.333 45.314 C 135.333 45.493,135.413 45.666,135.511 45.698 C 135.608 45.731,135.731 46.074,135.783 46.462 C 135.835 46.850,135.942 47.167,136.022 47.167 C 136.102 47.167,136.167 47.467,136.167 47.833 C 136.167 48.200,136.242 48.500,136.333 48.500 C 136.443 48.500,136.500 53.611,136.500 63.500 L 136.500 78.500 141.762 78.500 C 146.100 78.500,147.066 78.458,147.262 78.262 C 147.533 77.990,147.630 49.333,147.359 49.333 C 147.282 49.333,147.170 48.377,147.110 47.209 C 147.051 46.028,146.928 45.059,146.835 45.028 C 146.742 44.997,146.667 44.753,146.667 44.486 C 146.667 44.219,146.599 44.000,146.516 44.000 C 146.433 44.000,146.313 43.625,146.250 43.167 C 146.187 42.708,146.077 42.333,146.006 42.333 C 145.934 42.333,145.828 42.033,145.769 41.667 C 145.711 41.300,145.589 41.000,145.498 41.000 C 145.407 41.000,145.333 40.887,145.333 40.750 C 145.333 40.612,145.266 40.500,145.185 40.500 C 145.103 40.500,144.989 40.313,144.932 40.083 C 144.874 39.854,144.753 39.667,144.663 39.667 C 144.574 39.667,144.500 39.582,144.500 39.477 C 144.500 39.373,144.313 39.114,144.083 38.902 C 143.854 38.690,143.667 38.431,143.667 38.326 C 143.667 38.068,142.260 36.719,141.856 36.591 C 141.677 36.534,141.489 36.378,141.437 36.244 C 141.386 36.110,141.196 36.000,141.016 36.000 C 140.836 36.000,140.642 35.853,140.585 35.672 C 140.519 35.465,140.271 35.305,139.907 35.237 C 139.592 35.178,139.333 35.063,139.333 34.981 C 139.333 34.900,139.221 34.833,139.083 34.833 C 138.946 34.833,138.833 34.767,138.833 34.686 C 138.833 34.604,138.477 34.484,138.042 34.419 C 137.606 34.354,137.208 34.233,137.157 34.151 C 137.106 34.069,136.487 33.952,135.782 33.893 C 135.077 33.833,134.500 33.720,134.500 33.642 C 134.500 33.564,133.487 33.500,132.250 33.500 C 131.012 33.500,130.000 33.564,130.000 33.642 M250.333 33.643 C 250.333 33.721,249.642 33.838,248.796 33.902 C 247.951 33.965,247.219 34.077,247.171 34.150 C 247.123 34.223,246.708 34.332,246.250 34.393 C 245.792 34.455,245.392 34.579,245.361 34.669 C 245.331 34.759,245.124 34.833,244.903 34.833 C 244.681 34.833,244.500 34.899,244.500 34.979 C 244.500 35.059,244.200 35.172,243.833 35.231 C 243.467 35.289,243.167 35.411,243.167 35.502 C 243.167 35.593,243.017 35.667,242.833 35.667 C 242.650 35.667,242.500 35.736,242.500 35.820 C 242.500 35.904,242.275 36.023,242.000 36.083 C 241.725 36.144,241.500 36.254,241.500 36.329 C 241.500 36.403,241.313 36.511,241.083 36.568 C 240.854 36.626,240.667 36.747,240.667 36.837 C 240.667 36.926,240.554 37.000,240.417 37.000 C 240.279 37.000,240.167 37.070,240.167 37.155 C 240.167 37.241,239.998 37.364,239.792 37.429 C 239.585 37.493,239.187 37.789,238.906 38.085 C 238.625 38.382,238.235 38.675,238.040 38.737 C 237.844 38.800,237.639 38.993,237.583 39.167 C 237.528 39.341,237.341 39.528,237.167 39.583 C 236.993 39.639,236.799 39.849,236.735 40.050 C 236.672 40.252,236.378 40.646,236.081 40.927 C 235.785 41.208,235.490 41.602,235.427 41.802 C 235.363 42.003,235.241 42.167,235.155 42.167 C 235.070 42.167,235.000 42.279,235.000 42.417 C 235.000 42.554,234.926 42.667,234.837 42.667 C 234.747 42.667,234.626 42.854,234.568 43.083 C 234.511 43.313,234.405 43.500,234.333 43.500 C 234.262 43.500,234.156 43.688,234.098 43.917 C 234.041 44.146,233.920 44.333,233.830 44.333 C 233.740 44.333,233.667 44.483,233.667 44.667 C 233.667 44.850,233.600 45.000,233.519 45.000 C 233.437 45.000,233.321 45.262,233.261 45.583 C 233.201 45.904,233.087 46.167,233.008 46.167 C 232.929 46.167,232.813 46.542,232.750 47.000 C 232.687 47.458,232.567 47.833,232.484 47.833 C 232.401 47.833,232.333 47.983,232.333 48.167 C 232.333 48.350,232.265 48.500,232.181 48.500 C 232.097 48.500,231.976 49.063,231.911 49.750 C 231.847 50.438,231.728 51.000,231.647 51.000 C 231.566 51.000,231.500 51.413,231.500 51.917 C 231.500 52.421,231.425 52.833,231.333 52.833 C 231.228 52.833,231.167 54.028,231.167 56.083 C 231.167 58.139,231.228 59.333,231.333 59.333 C 231.427 59.333,231.500 59.806,231.500 60.417 C 231.500 61.012,231.565 61.500,231.645 61.500 C 231.725 61.500,231.842 62.025,231.905 62.667 C 231.968 63.308,232.091 63.833,232.177 63.833 C 232.263 63.833,232.333 64.021,232.333 64.250 C 232.333 64.479,232.401 64.667,232.484 64.667 C 232.567 64.667,232.687 65.042,232.750 65.500 C 232.813 65.958,232.927 66.333,233.002 66.333 C 233.078 66.333,233.190 66.558,233.250 66.833 C 233.310 67.108,233.429 67.333,233.513 67.333 C 233.598 67.333,233.667 67.483,233.667 67.667 C 233.667 67.850,233.736 68.000,233.820 68.000 C 233.904 68.000,234.023 68.225,234.083 68.500 C 234.144 68.775,234.254 69.000,234.329 69.000 C 234.403 69.000,234.511 69.188,234.568 69.417 C 234.626 69.646,234.747 69.833,234.837 69.833 C 234.926 69.833,235.000 69.946,235.000 70.083 C 235.000 70.221,235.070 70.333,235.155 70.333 C 235.241 70.333,235.363 70.497,235.427 70.698 C 235.490 70.898,235.785 71.292,236.081 71.573 C 236.378 71.854,236.672 72.248,236.735 72.450 C 236.799 72.651,236.993 72.861,237.167 72.917 C 237.341 72.972,237.528 73.159,237.583 73.333 C 237.639 73.507,237.849 73.701,238.050 73.765 C 238.252 73.828,238.646 74.122,238.927 74.419 C 239.208 74.715,239.602 75.010,239.802 75.073 C 240.003 75.137,240.167 75.259,240.167 75.345 C 240.167 75.430,240.279 75.500,240.417 75.500 C 240.554 75.500,240.667 75.574,240.667 75.663 C 240.667 75.753,240.854 75.874,241.083 75.932 C 241.313 75.989,241.500 76.097,241.500 76.171 C 241.500 76.246,241.725 76.356,242.000 76.417 C 242.275 76.477,242.500 76.596,242.500 76.680 C 242.500 76.764,242.650 76.833,242.833 76.833 C 243.017 76.833,243.167 76.907,243.167 76.998 C 243.167 77.089,243.467 77.211,243.833 77.269 C 244.200 77.328,244.500 77.433,244.500 77.502 C 244.500 77.572,244.838 77.679,245.250 77.741 C 245.662 77.803,246.000 77.924,246.000 78.010 C 246.000 78.096,246.181 78.167,246.403 78.167 C 246.624 78.167,246.831 78.239,246.861 78.328 C 246.892 78.416,247.648 78.540,248.542 78.602 C 249.435 78.665,250.167 78.780,250.167 78.858 C 250.167 78.936,251.554 79.000,253.250 79.000 C 254.950 79.000,256.333 78.933,256.333 78.851 C 256.333 78.769,257.008 78.649,257.833 78.583 C 258.658 78.518,259.333 78.398,259.333 78.316 C 259.333 78.234,259.558 78.167,259.833 78.167 C 260.108 78.167,260.333 78.099,260.333 78.016 C 260.333 77.933,260.708 77.813,261.167 77.750 C 261.625 77.687,262.000 77.568,262.000 77.486 C 262.000 77.404,262.300 77.289,262.667 77.231 C 263.033 77.172,263.333 77.059,263.333 76.979 C 263.333 76.899,263.446 76.833,263.583 76.833 C 263.721 76.833,263.833 76.764,263.833 76.680 C 263.833 76.596,264.058 76.477,264.333 76.417 C 264.608 76.356,264.833 76.243,264.833 76.165 C 264.833 76.086,265.002 75.969,265.208 75.904 C 265.415 75.839,265.696 75.657,265.833 75.500 C 265.971 75.343,266.248 75.162,266.450 75.099 C 266.651 75.035,266.863 74.837,266.919 74.658 C 266.976 74.479,267.138 74.333,267.280 74.333 C 267.541 74.333,269.991 72.031,269.997 71.780 C 269.999 71.704,270.094 71.538,270.208 71.411 C 270.695 70.868,270.833 70.672,270.833 70.525 C 270.833 70.439,270.946 70.326,271.083 70.273 C 271.221 70.220,271.333 70.030,271.333 69.850 C 271.333 69.670,271.481 69.476,271.661 69.419 C 271.868 69.353,272.028 69.104,272.096 68.741 C 272.155 68.425,272.264 68.167,272.339 68.167 C 272.413 68.167,272.523 67.942,272.583 67.667 C 272.644 67.392,272.762 67.167,272.847 67.167 C 272.931 67.167,273.000 66.979,273.000 66.750 C 273.000 66.521,273.074 66.333,273.165 66.333 C 273.255 66.333,273.377 66.033,273.436 65.667 C 273.495 65.300,273.603 65.000,273.676 65.000 C 273.749 65.000,273.861 64.587,273.924 64.083 C 273.987 63.579,274.105 63.167,274.186 63.167 C 274.267 63.167,274.333 62.873,274.333 62.514 C 274.333 62.140,274.422 61.831,274.542 61.792 C 274.703 61.738,274.750 60.480,274.750 56.250 C 274.750 52.020,274.703 50.762,274.542 50.708 C 274.422 50.669,274.333 50.360,274.333 49.986 C 274.333 49.627,274.267 49.333,274.186 49.333 C 274.105 49.333,273.987 48.921,273.924 48.417 C 273.861 47.913,273.747 47.500,273.670 47.500 C 273.594 47.500,273.480 47.125,273.417 46.667 C 273.354 46.208,273.234 45.833,273.151 45.833 C 273.068 45.833,273.000 45.721,273.000 45.583 C 273.000 45.446,272.931 45.333,272.847 45.333 C 272.762 45.333,272.644 45.108,272.583 44.833 C 272.523 44.558,272.413 44.333,272.339 44.333 C 272.264 44.333,272.155 44.071,272.094 43.750 C 272.034 43.429,271.913 43.167,271.826 43.167 C 271.738 43.167,271.667 43.054,271.667 42.917 C 271.667 42.779,271.593 42.667,271.503 42.667 C 271.413 42.667,271.296 42.494,271.243 42.282 C 271.190 42.070,270.964 41.760,270.740 41.592 C 270.516 41.424,270.333 41.219,270.333 41.136 C 270.333 40.982,270.078 40.636,269.704 40.284 C 268.608 39.252,267.667 38.263,267.667 38.145 C 267.667 38.065,267.514 38.000,267.328 38.000 C 267.142 38.000,266.947 37.890,266.896 37.756 C 266.845 37.622,266.641 37.462,266.443 37.399 C 266.245 37.337,265.971 37.157,265.833 37.000 C 265.696 36.843,265.399 36.656,265.174 36.585 C 264.950 36.514,264.663 36.353,264.538 36.228 C 264.412 36.103,264.202 36.000,264.071 36.000 C 263.940 36.000,263.833 35.925,263.833 35.833 C 263.833 35.742,263.646 35.667,263.417 35.667 C 263.188 35.667,263.000 35.598,263.000 35.513 C 263.000 35.429,262.775 35.310,262.500 35.250 C 262.225 35.190,262.000 35.071,262.000 34.987 C 262.000 34.902,261.813 34.833,261.583 34.833 C 261.354 34.833,261.167 34.769,261.167 34.690 C 261.167 34.611,260.779 34.500,260.304 34.444 C 259.830 34.388,259.397 34.270,259.342 34.181 C 259.288 34.093,258.476 33.968,257.538 33.903 C 256.601 33.839,255.833 33.721,255.833 33.643 C 255.833 33.564,254.596 33.500,253.083 33.500 C 251.571 33.500,250.333 33.564,250.333 33.643 M212.167 56.153 C 212.167 68.154,212.212 78.091,212.268 78.236 C 212.357 78.469,212.999 78.500,217.768 78.500 L 223.167 78.500 223.167 56.417 L 223.167 34.333 217.667 34.333 L 212.167 34.333 212.167 56.153 M84.667 41.667 C 84.667 41.758,84.854 41.833,85.083 41.833 C 85.313 41.833,85.500 41.899,85.500 41.978 C 85.500 42.058,85.769 42.167,86.098 42.220 C 86.428 42.274,86.821 42.460,86.973 42.635 C 87.126 42.809,87.419 43.006,87.625 43.071 C 87.831 43.136,88.000 43.251,88.000 43.326 C 88.000 43.402,88.183 43.510,88.406 43.566 C 88.629 43.622,88.864 43.836,88.929 44.042 C 88.993 44.248,89.223 44.582,89.440 44.784 C 89.656 44.986,89.833 45.267,89.833 45.409 C 89.833 45.551,89.900 45.667,89.982 45.667 C 90.064 45.667,90.182 45.872,90.245 46.123 C 90.308 46.374,90.437 46.628,90.531 46.686 C 90.626 46.744,90.742 47.139,90.790 47.563 C 90.838 47.987,90.942 48.333,91.022 48.333 C 91.101 48.333,91.167 48.633,91.167 49.000 C 91.167 49.367,91.242 49.667,91.333 49.667 C 91.425 49.667,91.500 49.967,91.500 50.333 L 91.500 51.000 81.750 51.000 L 72.000 51.000 72.000 50.500 C 72.000 50.225,72.075 50.000,72.167 50.000 C 72.258 50.000,72.333 49.737,72.333 49.417 C 72.333 49.096,72.399 48.833,72.479 48.833 C 72.559 48.833,72.672 48.533,72.731 48.167 C 72.789 47.800,72.905 47.500,72.989 47.500 C 73.072 47.500,73.190 47.275,73.250 47.000 C 73.310 46.725,73.429 46.500,73.513 46.500 C 73.598 46.500,73.667 46.350,73.667 46.167 C 73.667 45.983,73.742 45.833,73.833 45.833 C 73.925 45.833,74.000 45.727,74.000 45.596 C 74.000 45.466,74.225 45.134,74.500 44.859 C 74.775 44.584,75.000 44.310,75.000 44.251 C 75.000 44.063,75.419 43.715,75.784 43.599 C 75.978 43.538,76.178 43.378,76.229 43.244 C 76.281 43.110,76.438 43.000,76.578 43.000 C 76.718 43.000,76.833 42.925,76.833 42.833 C 76.833 42.742,76.983 42.667,77.167 42.667 C 77.350 42.667,77.500 42.593,77.500 42.502 C 77.500 42.411,77.800 42.289,78.167 42.231 C 78.533 42.172,78.833 42.059,78.833 41.979 C 78.833 41.899,79.021 41.833,79.250 41.833 C 79.479 41.833,79.667 41.758,79.667 41.667 C 79.667 41.563,80.611 41.500,82.167 41.500 C 83.722 41.500,84.667 41.563,84.667 41.667 M253.333 41.976 C 253.333 42.054,254.100 42.160,255.037 42.212 C 256.030 42.267,256.766 42.381,256.801 42.486 C 256.834 42.586,257.042 42.667,257.264 42.667 C 257.485 42.667,257.667 42.742,257.667 42.833 C 257.667 42.925,257.774 43.000,257.905 43.000 C 258.036 43.000,258.245 43.103,258.371 43.228 C 258.496 43.353,258.764 43.508,258.966 43.573 C 259.168 43.637,259.333 43.759,259.333 43.845 C 259.333 43.930,259.406 44.000,259.494 44.000 C 259.746 44.000,260.617 44.913,260.742 45.309 C 260.805 45.506,260.926 45.667,261.012 45.667 C 261.097 45.667,261.298 45.967,261.456 46.333 C 261.615 46.700,261.797 47.000,261.859 47.000 C 261.922 47.000,262.023 47.225,262.083 47.500 C 262.144 47.775,262.262 48.000,262.347 48.000 C 262.431 48.000,262.500 48.188,262.500 48.417 C 262.500 48.646,262.568 48.833,262.651 48.833 C 262.734 48.833,262.856 49.227,262.921 49.708 C 262.987 50.190,263.125 50.637,263.229 50.702 C 263.498 50.872,263.495 61.630,263.225 61.798 C 263.120 61.863,262.980 62.348,262.914 62.875 C 262.849 63.402,262.729 63.833,262.647 63.833 C 262.566 63.833,262.500 63.983,262.500 64.167 C 262.500 64.350,262.431 64.500,262.347 64.500 C 262.262 64.500,262.144 64.725,262.083 65.000 C 262.023 65.275,261.922 65.500,261.859 65.500 C 261.797 65.500,261.615 65.800,261.456 66.167 C 261.298 66.533,261.092 66.833,261.000 66.833 C 260.909 66.833,260.833 66.939,260.833 67.069 C 260.833 67.293,259.776 68.500,259.579 68.500 C 259.490 68.500,259.259 68.675,258.764 69.117 C 258.641 69.227,258.344 69.366,258.103 69.427 C 257.863 69.487,257.667 69.603,257.667 69.685 C 257.667 69.766,257.485 69.833,257.264 69.833 C 257.042 69.833,256.830 69.927,256.792 70.042 C 256.739 70.200,255.863 70.250,253.167 70.250 C 250.471 70.250,249.594 70.200,249.542 70.042 C 249.504 69.927,249.333 69.833,249.163 69.833 C 248.992 69.833,248.810 69.764,248.758 69.679 C 248.706 69.595,248.439 69.476,248.165 69.416 C 247.891 69.356,247.667 69.246,247.667 69.171 C 247.667 69.097,247.484 68.990,247.261 68.934 C 247.038 68.878,246.809 68.687,246.753 68.508 C 246.696 68.330,246.503 68.137,246.325 68.081 C 246.146 68.024,246.000 67.913,246.000 67.835 C 246.000 67.756,245.775 67.467,245.500 67.192 C 245.225 66.917,245.000 66.612,245.000 66.513 C 245.000 66.414,244.926 66.333,244.837 66.333 C 244.747 66.333,244.626 66.146,244.568 65.917 C 244.511 65.688,244.397 65.500,244.315 65.500 C 244.234 65.500,244.167 65.387,244.167 65.250 C 244.167 65.112,244.095 65.000,244.008 65.000 C 243.920 65.000,243.797 64.719,243.734 64.375 C 243.670 64.031,243.555 63.708,243.477 63.657 C 243.399 63.606,243.286 63.100,243.227 62.532 C 243.168 61.965,243.055 61.500,242.976 61.500 C 242.898 61.500,242.833 61.125,242.833 60.667 C 242.833 60.208,242.758 59.833,242.667 59.833 C 242.561 59.833,242.500 58.528,242.500 56.250 C 242.500 53.972,242.561 52.667,242.667 52.667 C 242.758 52.667,242.833 52.292,242.833 51.833 C 242.833 51.375,242.902 51.000,242.987 51.000 C 243.071 51.000,243.192 50.512,243.256 49.917 C 243.320 49.321,243.438 48.833,243.517 48.833 C 243.597 48.833,243.711 48.533,243.769 48.167 C 243.828 47.800,243.941 47.500,244.021 47.500 C 244.101 47.500,244.167 47.387,244.167 47.250 C 244.167 47.112,244.234 47.000,244.315 47.000 C 244.397 47.000,244.511 46.813,244.568 46.583 C 244.626 46.354,244.747 46.167,244.837 46.167 C 244.926 46.167,245.000 46.089,245.000 45.993 C 245.000 45.804,245.167 45.585,245.888 44.828 C 246.147 44.556,246.423 44.333,246.502 44.333 C 246.580 44.333,246.692 44.184,246.750 44.000 C 246.808 43.817,247.038 43.622,247.261 43.566 C 247.484 43.510,247.667 43.403,247.667 43.329 C 247.667 43.254,247.891 43.144,248.165 43.084 C 248.439 43.024,248.706 42.905,248.758 42.821 C 248.810 42.736,248.992 42.667,249.163 42.667 C 249.333 42.667,249.501 42.581,249.536 42.476 C 249.575 42.358,250.240 42.255,251.300 42.204 C 252.235 42.159,253.000 42.057,253.000 41.978 C 253.000 41.898,253.075 41.833,253.167 41.833 C 253.258 41.833,253.333 41.897,253.333 41.976 " stroke="none" fill="#fcfcfc" fill-rule="evenodd"></path><path id="path1" d="" stroke="none" fill="#100fcfc" fill-rule="evenodd"></path><path id="path2" d="" stroke="none" fill="#100fcfc" fill-rule="evenodd"></path><path id="path3" d="" stroke="none" fill="#100fcfc" fill-rule="evenodd"></path><path id="path4" d="" stroke="none" fill="#100fcfc" fill-rule="evenodd"></path></g></svg>